<svg width="106" height="53" viewBox="0 0 106 53" fill="none" xmlns="http://www.w3.org/2000/svg">
<g clip-path="url(#clip0_75273_676)">
<path fill-rule="evenodd" clip-rule="evenodd" d="M50.1136 6.0215H49.977C49.7671 6.00878 49.5571 6.0037 49.3471 5.99861H49.3471H49.3269H48.8918C48.4946 5.99861 48.0898 6.00878 47.6876 6.02912C47.6573 6.02692 47.6269 6.02692 47.5966 6.02912C43.9522 6.23561 40.3817 7.14649 37.0805 8.7119L36.6479 8.92042V31.0616L37.6598 30.7183C38.5477 30.4131 39.4938 30.1385 40.4728 29.8842C43.1193 29.2048 45.8367 28.8437 48.568 28.8085V31.7176C48.2062 31.7202 47.8546 31.7303 47.503 31.7481H47.4195C45.3175 31.8634 43.2317 32.1837 41.1913 32.7043C38.6072 33.3512 36.1143 34.3226 33.7716 35.5956V7.19886C36.2047 5.77973 38.8253 4.71385 41.5556 4.03294C43.9527 3.41403 46.4169 3.09628 48.8918 3.08698H49.3193C49.8303 3.09969 50.3287 3.12258 50.7967 3.15818C52.0297 3.24475 53.2528 3.4396 54.4521 3.7405V6.60382C53.2874 6.33248 52.1032 6.15393 50.9105 6.06981C50.8863 6.06777 50.8621 6.0657 50.8379 6.06363C50.5911 6.04258 50.344 6.0215 50.1136 6.0215ZM55.1528 8.94836C55.7877 8.99667 56.4455 9.01956 57.1108 9.01956C59.7125 9.01005 62.3031 8.67781 64.8239 8.03037C67.4068 7.38094 69.8986 6.40875 72.2411 5.13654V33.0272C69.8067 34.4455 67.1853 35.5113 64.4546 36.1931C62.0571 36.8097 59.5931 37.1265 57.1184 37.1365C55.2433 37.1517 53.3737 36.9313 51.553 36.4805V8.40926C51.983 8.50844 52.4257 8.59998 52.876 8.67627C53.6147 8.80087 54.3939 8.89242 55.1528 8.94836ZM69.3471 9.16451L68.3352 9.50526C67.4042 9.81804 66.4657 10.0978 65.5221 10.347C62.7749 11.0529 59.9514 11.4151 57.1158 11.4252C56.4556 11.4252 55.8485 11.4074 55.2616 11.3692L54.4546 11.3158V31.4048V34.0927L55.1477 34.1537C55.7903 34.2096 56.4531 34.2376 57.1209 34.2376C59.3544 34.2281 61.5781 33.9403 63.7412 33.3806C65.5223 32.9339 67.2552 32.3112 68.9145 31.5218L69.3471 31.3133V9.16451Z" fill="#AFB1B8"/>
<path d="M35.7371 45.2994C35.5917 45.1485 35.4163 45.0301 35.2224 44.9516C35.0284 44.8732 34.8203 44.8366 34.6114 44.8442C34.3888 44.8413 34.1678 44.8828 33.9613 44.9663C33.7719 45.0417 33.5998 45.1551 33.4553 45.2994C33.3125 45.4442 33.2013 45.6175 33.129 45.808C33.0497 46.0077 33.0101 46.2211 33.0126 46.4361V50.2301C33.0036 50.4975 33.0546 50.7634 33.1619 51.0083C33.2514 51.2027 33.3807 51.376 33.5413 51.5168C33.693 51.6445 33.871 51.7366 34.0625 51.7864C34.2469 51.8382 34.4376 51.8648 34.6291 51.8652C34.8404 51.8673 35.0495 51.8222 35.2413 51.733C35.4309 51.65 35.6028 51.5308 35.7473 51.3821C35.8881 51.2347 36.0005 51.0622 36.0786 50.8735C36.1597 50.6822 36.201 50.4762 36.2001 50.2683V49.8436H35.2084V50.1818C35.2114 50.2973 35.1916 50.4122 35.1502 50.52C35.1179 50.6008 35.0688 50.6736 35.006 50.7336C34.9446 50.7833 34.8742 50.8204 34.7986 50.843C34.7316 50.8653 34.6617 50.8773 34.5912 50.8786C34.5026 50.8889 34.413 50.8755 34.3312 50.8398C34.2495 50.804 34.1786 50.7473 34.1257 50.6751C34.0322 50.5227 33.9864 50.3455 33.9942 50.1666V46.6294C33.988 46.4332 34.0297 46.2385 34.1156 46.0623C34.1671 45.9822 34.2399 45.9183 34.3258 45.8778C34.4117 45.8374 34.5071 45.822 34.6013 45.8334C34.6868 45.8304 34.7717 45.8482 34.8488 45.8854C34.9259 45.9226 34.9929 45.9781 35.044 46.047C35.155 46.1927 35.213 46.3722 35.2084 46.5556V46.8837H36.19V46.4971C36.1919 46.2701 36.1507 46.0449 36.0685 45.8334C35.9953 45.6347 35.8825 45.453 35.7371 45.2994Z" fill="#AFB1B8"/>
<path d="M41.6289 45.2561C41.3127 44.9891 40.9136 44.8416 40.5007 44.8391C40.2987 44.84 40.0984 44.8761 39.9087 44.9459C39.7161 45.0149 39.5384 45.1202 39.3851 45.2561C39.2208 45.4038 39.0897 45.585 39.0005 45.7876C38.9006 46.0194 38.8515 46.27 38.8563 46.5225V50.1614C38.8495 50.4174 38.8987 50.6718 39.0005 50.9065C39.0903 51.1022 39.2215 51.2758 39.3851 51.4151C39.5367 51.5558 39.7147 51.6648 39.9087 51.7355C40.0984 51.8053 40.2987 51.8414 40.5007 51.8423C40.7027 51.8419 40.9031 51.8058 41.0926 51.7355C41.29 51.6638 41.4719 51.5551 41.6289 51.4151C41.7871 51.2732 41.9145 51.1 42.0033 50.9065C42.1051 50.6718 42.1544 50.4174 42.1475 50.1614V46.5225C42.1524 46.27 42.1032 46.0194 42.0033 45.7876C41.9151 45.5871 41.7878 45.4064 41.6289 45.2561ZM41.166 50.1614C41.1743 50.2584 41.1609 50.356 41.1268 50.4471C41.0926 50.5382 41.0386 50.6205 40.9687 50.6878C40.8377 50.7977 40.6725 50.8578 40.5019 50.8578C40.3313 50.8578 40.1662 50.7977 40.0352 50.6878C39.9652 50.6205 39.9112 50.5382 39.8771 50.4471C39.8429 50.356 39.8295 50.2584 39.8379 50.1614V46.5225C39.8295 46.4255 39.8429 46.3279 39.8771 46.2368C39.9112 46.1457 39.9652 46.0635 40.0352 45.9961C40.1662 45.8863 40.3313 45.8261 40.5019 45.8261C40.6725 45.8261 40.8377 45.8863 40.9687 45.9961C41.0386 46.0635 41.0926 46.1457 41.1268 46.2368C41.1609 46.3279 41.1743 46.4255 41.166 46.5225V50.1614Z" fill="#AFB1B8"/>
<path d="M49.3673 51.7864V44.8977H48.4136L47.1614 48.5442H47.1437L45.8813 44.8977H44.9377V51.7864H45.9218V47.5957H45.9395L46.9033 50.5582H47.3941L48.3655 47.5957H48.3832V51.7864H49.3673Z" fill="#AFB1B8"/>
<path d="M54.9581 45.3807C54.8065 45.2107 54.6153 45.0814 54.4015 45.0043C54.1712 44.9294 53.9302 44.8933 53.6881 44.8975H52.226V51.7863H53.2075V49.0959H53.7134C54.0197 49.1098 54.3244 49.0451 54.5988 48.9077C54.822 48.7838 55.0081 48.602 55.1377 48.3813C55.2512 48.1981 55.3277 47.9942 55.3628 47.7812C55.4014 47.522 55.4192 47.2601 55.4159 46.998C55.4255 46.6672 55.3932 46.3365 55.3198 46.0139C55.2543 45.7755 55.1299 45.5577 54.9581 45.3807ZM54.4521 47.4812C54.4479 47.6059 54.4168 47.7282 54.361 47.8397C54.3049 47.9456 54.2162 48.0304 54.1081 48.0813C53.9627 48.1463 53.8041 48.1759 53.6451 48.1677H53.1974V45.8257H53.7033C53.8557 45.8182 54.0075 45.8479 54.146 45.9122C54.2475 45.9704 54.3281 46.0594 54.3762 46.1665C54.4299 46.2875 54.4591 46.418 54.4622 46.5504C54.4622 46.6954 54.4622 46.848 54.4622 47.0082C54.4622 47.1684 54.4723 47.3337 54.4622 47.4812H54.4521Z" fill="#AFB1B8"/>
<path d="M59.6077 44.8977H58.8032L57.2854 51.7864H58.2669L58.5553 50.3065H59.8935L60.1819 51.7864H61.1635L59.6077 44.8977ZM58.702 49.3681L59.1852 46.871H59.2029L59.6836 49.3681H58.702Z" fill="#AFB1B8"/>
<path d="M65.9497 49.0477H65.932L64.4496 44.8977H63.506V51.7864H64.4875V47.644H64.5078L66.0079 51.7864H66.9312V44.8977H65.9497V49.0477Z" fill="#AFB1B8"/>
<path d="M71.9476 44.8977L71.1583 47.6364H71.1381L70.3488 44.8977H69.3091L70.6574 48.8748V51.7864H71.639V48.8748L72.9873 44.8977H71.9476Z" fill="#AFB1B8"/>
</g>
<defs>
<clipPath id="clip0_75273_676">
<rect width="106" height="52.8261" fill="white" transform="translate(0 0.0869751)"/>
</clipPath>
</defs>
</svg>
