<?xml version="1.0" encoding="UTF-8"?>
<svg xmlns="http://www.w3.org/2000/svg" xmlns:xlink="http://www.w3.org/1999/xlink" width="12px" height="12px" viewBox="0 0 12 12" version="1.1">
<g id="surface1">
<path style=" stroke:none;fill-rule:nonzero;fill:rgb(12.941176%,12.941176%,12.941176%);fill-opacity:1;" d="M 10 2 L 2 2 C 1.449219 2 1.003906 2.449219 1.003906 3 L 1 9 C 1 9.550781 1.449219 10 2 10 L 10 10 C 10.550781 10 11 9.550781 11 9 L 11 3 C 11 2.449219 10.550781 2 10 2 Z M 9.800781 4.125 L 6.265625 6.335938 C 6.105469 6.433594 5.894531 6.433594 5.734375 6.335938 L 2.199219 4.125 C 2.074219 4.046875 2 3.910156 2 3.765625 C 2 3.429688 2.363281 3.230469 2.648438 3.40625 L 6 5.5 L 9.351562 3.40625 C 9.636719 3.230469 10 3.429688 10 3.765625 C 10 3.910156 9.925781 4.046875 9.800781 4.125 Z M 9.800781 4.125 "/>
</g>
</svg>
