<?xml version="1.0" encoding="UTF-8"?>
<svg xmlns="http://www.w3.org/2000/svg" xmlns:xlink="http://www.w3.org/1999/xlink" width="12px" height="12px" viewBox="0 0 12 12" version="1.1">
    <g id="surface1">
        <path style=" stroke:none;fill-rule:nonzero;fill:rgb(12.941176%,12.941176%,12.941176%);fill-opacity:1;" d="M 6 6 C 7.105469 6 8 5.105469 8 4 C 8 2.894531 7.105469 2 6 2 C 4.894531 2 4 2.894531 4 4 C 4 5.105469 4.894531 6 6 6 Z M 6 7 C 4.664062 7 2 7.671875 2 9 L 2 9.5 C 2 9.773438 2.226562 10 2.5 10 L 9.5 10 C 9.773438 10 10 9.773438 10 9.5 L 10 9 C 10 7.671875 7.335938 7 6 7 Z M 6 7 "/>
    </g>
</svg>

