<?xml version="1.0" encoding="UTF-8"?>
<svg xmlns="http://www.w3.org/2000/svg" xmlns:xlink="http://www.w3.org/1999/xlink" width="12px" height="12px" viewBox="0 0 12 12" version="1.1">
<g id="surface1">
<path style=" stroke:none;fill-rule:nonzero;fill:rgb(12.941176%,12.941176%,12.941176%);fill-opacity:1;" d="M 9.332031 7.414062 L 8.105469 7.273438 C 7.8125 7.242188 7.519531 7.34375 7.3125 7.550781 L 6.425781 8.4375 C 5.0625 7.742188 3.941406 6.628906 3.246094 5.257812 L 4.140625 4.367188 C 4.347656 4.160156 4.449219 3.867188 4.414062 3.574219 L 4.273438 2.359375 C 4.214844 1.871094 3.804688 1.503906 3.316406 1.503906 L 2.480469 1.503906 C 1.933594 1.503906 1.480469 1.957031 1.515625 2.503906 C 1.769531 6.625 5.066406 9.914062 9.179688 10.167969 C 9.726562 10.203125 10.179688 9.75 10.179688 9.203125 L 10.179688 8.371094 C 10.183594 7.882812 9.816406 7.472656 9.332031 7.414062 Z M 9.332031 7.414062 "/>
</g>
</svg>
