<svg viewBox="0 0 10 10" xmlns="http://www.w3.org/2000/svg">
<symbol id="xvector" viewBox="0 0 10 10">
<path d="M11 1.10786L9.89214 0L5.5 4.39214L1.10786 0L0 1.10786L4.39214 5.5L0 9.89214L1.10786 11L5.5 6.60786L9.89214 11L11 9.89214L6.60786 5.5L11 1.10786Z #2196F3"/>
</symbol>
<symbol id="check" viewBox="0 0 512 512">
	<path d="M405.333,0H106.667C47.786,0.071,0.071,47.786,0,106.667v298.667C0.071,464.214,47.786,511.93,106.667,512h298.667   C464.214,511.93,511.93,464.214,512,405.333V106.667C511.93,47.786,464.214,0.071,405.333,0z M426.667,172.352L229.248,369.771   c-16.659,16.666-43.674,16.671-60.34,0.012c-0.004-0.004-0.008-0.008-0.012-0.012l-83.563-83.541   c-8.348-8.348-8.348-21.882,0-30.229s21.882-8.348,30.229,0l83.541,83.541l197.44-197.419c8.348-8.318,21.858-8.294,30.176,0.053   C435.038,150.524,435.014,164.034,426.667,172.352z" fill="#2196F3"/>
</symbol>
<symbol id="mail">
<path d="M15 3H3C2.175 3 1.5075 3.675 1.5075 4.5L1.5 13.5C1.5 14.325 2.175 15 3 15H15C15.825 15 16.5 14.325 16.5 13.5V4.5C16.5 3.675 15.825 3 15 3ZM14.7 6.1875L9.3975 9.5025C9.1575 9.6525 8.8425 9.6525 8.6025 9.5025L3.3 6.1875C3.1125 6.0675 3 5.865 3 5.6475C3 5.145 3.5475 4.845 3.975 5.1075L9 8.25L14.025 5.1075C14.4525 4.845 15 5.145 15 5.6475C15 5.865 14.8875 6.0675 14.7 6.1875Z"/>
</symbol>
<symbol id="imagen23">
<path fill="#000000" d="M8 0c-4.418 0-8 3.582-8 8s3.582 8 8 8 8-3.582 8-8-3.582-8-8-8zM4 4h8c0.143 0 0.281 0.031 0.409 0.088l-4.409 5.143-4.409-5.143c0.127-0.058 0.266-0.088 0.409-0.088zM3 11v-6c0-0.021 0.001-0.042 0.002-0.063l2.932 3.421-2.9 2.9c-0.023-0.083-0.034-0.17-0.034-0.258zM12 12h-8c-0.088 0-0.175-0.012-0.258-0.034l2.846-2.846 1.413 1.648 1.413-1.648 2.846 2.846c-0.083 0.023-0.17 0.034-0.258 0.034zM13 11c0 0.088-0.012 0.175-0.034 0.258l-2.9-2.9 2.932-3.421c0.001 0.021 0.002 0.042 0.002 0.063v6z"></path>
</symbol>

<symbol id="person">
<path d="M9 9C10.6575 9 12 7.6575 12 6C12 4.3425 10.6575 3 9 3C7.3425 3 6 4.3425 6 6C6 7.6575 7.3425 9 9 9ZM9 10.5C6.9975 10.5 3 11.505 3 13.5V14.25C3 14.6625 3.3375 15 3.75 15H14.25C14.6625 15 15 14.6625 15 14.25V13.5C15 11.505 11.0025 10.5 9 10.5Z"/>
</symbol>

<symbol id="casa">
<path d="M14.5 0H1.50001C0.672854 0 0 0.672853 0 1.50001V10.5C0 11.3271 0.672854 12 1.50001 12H14.5C15.3271 12 16 11.3271 16 10.5V1.50001C16 0.672853 15.3271 0 14.5 0ZM14.5 0.999994C14.5679 0.999994 14.6325 1.01409 14.6916 1.0387L8 6.83838L1.30833 1.0387C1.36742 1.01412 1.43204 0.999994 1.49998 0.999994H14.5ZM14.5 11H1.50001C1.22414 11 0.999996 10.7759 0.999996 10.5V2.09521L7.67236 7.87792C7.76661 7.95944 7.8833 7.99999 8 7.99999C8.1167 7.99999 8.23339 7.95948 8.32764 7.87792L15 2.09521V10.5C15 10.7759 14.7759 11 14.5 11Z" fill="#2196F3"/>
</symbol>

<symbol id="telefono-inte">
<path d="M8.5 0H1.5C0.672848 0 0 0.672848 0 1.5V14.5C0 15.3272 0.672848 16 1.5 16H8.5C9.32715 16 10 15.3272 10 14.5V1.5C10 0.672848 9.32715 0 8.5 0ZM1.5 1H8.5C8.77588 1 9 1.22412 9 1.5V12H1V1.5C1 1.22412 1.22412 1 1.5 1ZM8.5 15H1.5C1.22412 15 1 14.7759 1 14.5V13H9V14.5C9 14.7759 8.77588 15 8.5 15Z" fill="#757575"/>
<path d="M2.35355 13.7389C2.54882 13.9213 2.54882 14.2169 2.35355 14.3992C2.15828 14.5816 1.84172 14.5816 1.64645 14.3992C1.45118 14.2169 1.45118 13.9213 1.64645 13.7389C1.84172 13.5566 2.15828 13.5566 2.35355 13.7389Z" fill="#757575"/>
</symbol>

<symbol id="triangulo">
  <circle r="75" cx="50%" cy="50%" fill="tomato" />
</symbol>

<symbol id="tele-contac" viewBox="0 0 10 10">
<path style=" stroke:none;fill-rule:nonzero;fill:rgb(12.941176%,12.941176%,12.941176%);fill-opacity:1;" d="M 9.332031 7.414062 L 8.105469 7.273438 C 7.8125 7.242188 7.519531 7.34375 7.3125 7.550781 L 6.425781 8.4375 C 5.0625 7.742188 3.941406 6.628906 3.246094 5.257812 L 4.140625 4.367188 C 4.347656 4.160156 4.449219 3.867188 4.414062 3.574219 L 4.273438 2.359375 C 4.214844 1.871094 3.804688 1.503906 3.316406 1.503906 L 2.480469 1.503906 C 1.933594 1.503906 1.480469 1.957031 1.515625 2.503906 C 1.769531 6.625 5.066406 9.914062 9.179688 10.167969 C 9.726562 10.203125 10.179688 9.75 10.179688 9.203125 L 10.179688 8.371094 C 10.183594 7.882812 9.816406 7.472656 9.332031 7.414062 Z M 9.332031 7.414062 "/>
</symbol>

<symbol id="phone" viewBox="0 0 28 28">
<path d="M23,11a1,1,0,0,1-1-1,8.008,8.008,0,0,0-8-8,1,1,0,0,1,0-2A10.011,10.011,0,0,1,24,10,1,1,0,0,1,23,11Zm-3-1a6,6,0,0,0-6-6,1,1,0,1,0,0,2,4,4,0,0,1,4,4,1,1,0,0,0,2,0Zm2.183,12.164.91-1.049a3.1,3.1,0,0,0,0-4.377c-.031-.031-2.437-1.882-2.437-1.882a3.1,3.1,0,0,0-4.281.006l-1.906,1.606A12.784,12.784,0,0,1,7.537,9.524l1.6-1.9a3.1,3.1,0,0,0,.007-4.282S7.291.939,7.26.908A3.082,3.082,0,0,0,2.934.862l-1.15,1C-5.01,9.744,9.62,24.261,17.762,24A6.155,6.155,0,0,0,22.183,22.164Z"/></svg>
</symbol>
</svg>