<svg viewBox="0 0 10 10" xmlns="http://www.w3.org/2000/svg">

<symbol id="xector" viewBox="0 0 10 10">
<path d="M11 1.10786L9.89214 0L5.5 4.39214L1.10786 0L0 1.10786L4.39214 5.5L0 9.89214L1.10786 11L5.5 6.60786L9.89214 11L11 9.89214L6.60786 5.5L11 1.10786Z #2196F3"/>
</symbol>

<symbol id="checkbox" viewBox="0 0 512 512">
	<path d="M405.333,0H106.667C47.786,0.071,0.071,47.786,0,106.667v298.667C0.071,464.214,47.786,511.93,106.667,512h298.667   C464.214,511.93,511.93,464.214,512,405.333V106.667C511.93,47.786,464.214,0.071,405.333,0z M426.667,172.352L229.248,369.771   c-16.659,16.666-43.674,16.671-60.34,0.012c-0.004-0.004-0.008-0.008-0.012-0.012l-83.563-83.541   c-8.348-8.348-8.348-21.882,0-30.229s21.882-8.348,30.229,0l83.541,83.541l197.44-197.419c8.348-8.318,21.858-8.294,30.176,0.053   C435.038,150.524,435.014,164.034,426.667,172.352z"/>
</symbol>

<symbol id="mail">
<path d="M15 3H3C2.175 3 1.5075 3.675 1.5075 4.5L1.5 13.5C1.5 14.325 2.175 15 3 15H15C15.825 15 16.5 14.325 16.5 13.5V4.5C16.5 3.675 15.825 3 15 3ZM14.7 6.1875L9.3975 9.5025C9.1575 9.6525 8.8425 9.6525 8.6025 9.5025L3.3 6.1875C3.1125 6.0675 3 5.865 3 5.6475C3 5.145 3.5475 4.845 3.975 5.1075L9 8.25L14.025 5.1075C14.4525 4.845 15 5.145 15 5.6475C15 5.865 14.8875 6.0675 14.7 6.1875Z"/>
</symbol>

<symbol id="person">
<path d="M9 9C10.6575 9 12 7.6575 12 6C12 4.3425 10.6575 3 9 3C7.3425 3 6 4.3425 6 6C6 7.6575 7.3425 9 9 9ZM9 10.5C6.9975 10.5 3 11.505 3 13.5V14.25C3 14.6625 3.3375 15 3.75 15H14.25C14.6625 15 15 14.6625 15 14.25V13.5C15 11.505 11.0025 10.5 9 10.5Z"/>
</symbol>

<symbol id="sobre" width="16" height="12">
<path d="M14.5 0H1.50001C0.672854 0 0 0.672853 0 1.50001V10.5C0 11.3271 0.672854 12 1.50001 12H14.5C15.3271 12 16 11.3271 16 10.5V1.50001C16 0.672853 15.3271 0 14.5 0ZM14.5 0.999994C14.5679 0.999994 14.6325 1.01409 14.6916 1.0387L8 6.83838L1.30833 1.0387C1.36742 1.01412 1.43204 0.999994 1.49998 0.999994H14.5ZM14.5 11H1.50001C1.22414 11 0.999996 10.7759 0.999996 10.5V2.09521L7.67236 7.87792C7.76661 7.95944 7.8833 7.99999 8 7.99999C8.1167 7.99999 8.23339 7.95948 8.32764 7.87792L15 2.09521V10.5C15 10.7759 14.7759 11 14.5 11Z"/>
</symbol>

<symbol id="telefono-inte" viewBox="0 0 10 16">
<path d="M8.5 0H1.5C0.672848 0 0 0.672848 0 1.5V14.5C0 15.3272 0.672848 16 1.5 16H8.5C9.32715 16 10 15.3272 10 14.5V1.5C10 0.672848 9.32715 0 8.5 0ZM1.5 1H8.5C8.77588 1 9 1.22412 9 1.5V12H1V1.5C1 1.22412 1.22412 1 1.5 1ZM8.5 15H1.5C1.22412 15 1 14.7759 1 14.5V13H9V14.5C9 14.7759 8.77588 15 8.5 15Z"/>
<path d="M2.35355 13.7389C2.54882 13.9213 2.54882 14.2169 2.35355 14.3992C2.15828 14.5816 1.84172 14.5816 1.64645 14.3992C1.45118 14.2169 1.45118 13.9213 1.64645 13.7389C1.84172 13.5566 2.15828 13.5566 2.35355 13.7389Z"/>
</symbol>

<symbol id="telecontac" viewBox="0 0 10 10">
<path style=" stroke:none;fill-opacity:1;" d="M 9.332031 7.414062 L 8.105469 7.273438 C 7.8125 7.242188 7.519531 7.34375 7.3125 7.550781 L 6.425781 8.4375 C 5.0625 7.742188 3.941406 6.628906 3.246094 5.257812 L 4.140625 4.367188 C 4.347656 4.160156 4.449219 3.867188 4.414062 3.574219 L 4.273438 2.359375 C 4.214844 1.871094 3.804688 1.503906 3.316406 1.503906 L 2.480469 1.503906 C 1.933594 1.503906 1.480469 1.957031 1.515625 2.503906 C 1.769531 6.625 5.066406 9.914062 9.179688 10.167969 C 9.726562 10.203125 10.179688 9.75 10.179688 9.203125 L 10.179688 8.371094 C 10.183594 7.882812 9.816406 7.472656 9.332031 7.414062 Z M 9.332031 7.414062 "/>
</symbol>

<!-- CLIENTS -->
<symbol id="cli-1" viewBox="0 0 41 46" >
<path fill-rule="evenodd" clip-rule="evenodd" d="M6 0.0869751L13.0078 6.7211L0 6.71344V38.9007H34V26.594L41 33.2208V0.0869751H6ZM33.6924 25.8153L13.8226 7.00493H33.6924V25.8153ZM27.5231 34.1925H5.38008V12.5449H6.9453V32.7267H27.5231V34.1925ZM10.6089 43.1861L9.79102 44.8707L8.97314 43.1861H8.28711L9.48096 45.4322V46.7408H10.1011V45.4322L11.2925 43.1861H10.6089ZM11.6367 46.7408L11.9248 45.9131H13.3018L13.5923 46.7408H14.2368L12.8916 43.1861H12.3374L10.9946 46.7408H11.6367ZM12.6133 43.9405L13.1284 45.4151H12.0981L12.6133 43.9405ZM15.8701 45.3297C15.7806 45.4664 15.7358 45.6169 15.7358 45.7813C15.7358 46.0808 15.8408 46.3241 16.0508 46.5113C16.2624 46.6968 16.5439 46.7896 16.8955 46.7896C17.2471 46.7896 17.5498 46.6944 17.8037 46.504L18.0039 46.7408H18.6924L18.1699 46.1231C18.375 45.8432 18.4775 45.4843 18.4775 45.0464H17.9624C17.9624 45.2857 17.9128 45.503 17.8135 45.6983L17.1274 44.8878L17.3691 44.712C17.54 44.5883 17.6629 44.4646 17.7378 44.3409C17.8127 44.2156 17.8501 44.0788 17.8501 43.9307C17.8501 43.7061 17.7671 43.5181 17.6011 43.3668C17.4367 43.2138 17.2251 43.1373 16.9663 43.1373C16.6798 43.1373 16.452 43.2186 16.2827 43.3814C16.1134 43.5425 16.0288 43.7623 16.0288 44.0406C16.0288 44.1545 16.0557 44.2725 16.1094 44.3946C16.1647 44.5167 16.2616 44.6648 16.3999 44.8389C16.1362 45.0277 15.9596 45.1913 15.8701 45.3297ZM17.4741 46.1158C17.3 46.2492 17.1128 46.316 16.9126 46.316C16.7352 46.316 16.5936 46.2647 16.4878 46.1622C16.382 46.0596 16.3291 45.9262 16.3291 45.7618C16.3291 45.5714 16.4268 45.4021 16.6221 45.254L16.6978 45.2003L17.4741 46.1158ZM16.8369 44.5411C16.6693 44.3344 16.5854 44.1627 16.5854 44.0259C16.5854 43.9071 16.6196 43.8087 16.688 43.7305C16.7563 43.6524 16.8483 43.6133 16.9639 43.6133C17.0713 43.6133 17.16 43.6467 17.23 43.7134C17.3 43.7785 17.335 43.8575 17.335 43.9503C17.335 44.0902 17.2845 44.205 17.1836 44.2945L17.1079 44.3555L16.8369 44.5411ZM22.623 46.4722C22.8672 46.259 23.0072 45.9628 23.043 45.5836H22.4277C22.3952 45.8375 22.3179 46.0189 22.1958 46.128C22.0737 46.237 21.8914 46.2916 21.6489 46.2916C21.3836 46.2916 21.1818 46.1907 21.0435 45.9888C20.9067 45.787 20.8384 45.494 20.8384 45.1099V44.795C20.8416 44.4158 20.9149 44.1285 21.0581 43.9332C21.203 43.7362 21.4097 43.6378 21.6782 43.6378C21.9093 43.6378 22.0843 43.6947 22.2031 43.8087C22.3236 43.921 22.3984 44.1049 22.4277 44.3604H23.043C23.0039 43.9714 22.8647 43.6703 22.6255 43.4571C22.3862 43.2439 22.0705 43.1373 21.6782 43.1373C21.3869 43.1373 21.1297 43.2064 20.9067 43.3448C20.6854 43.4831 20.5153 43.6801 20.3965 43.9356C20.2777 44.1911 20.2183 44.4866 20.2183 44.8218V45.1539C20.2231 45.481 20.2842 45.7683 20.4014 46.0157C20.5186 46.2631 20.6846 46.4543 20.8994 46.5894C21.1159 46.7229 21.3657 46.7896 21.6489 46.7896C22.0542 46.7896 22.3789 46.6838 22.623 46.4722ZM26.2534 45.9742C26.3739 45.7105 26.4341 45.4045 26.4341 45.0562V44.8585C26.4325 44.5118 26.3706 44.2082 26.2485 43.9478C26.1265 43.6858 25.9531 43.4856 25.7285 43.3472C25.5055 43.2073 25.2492 43.1373 24.9595 43.1373C24.6698 43.1373 24.4126 43.2081 24.188 43.3497C23.965 43.4896 23.7917 43.6923 23.668 43.9576C23.5459 44.2229 23.4849 44.5289 23.4849 44.8755V45.0757C23.4865 45.4159 23.5483 45.7162 23.6704 45.9766C23.7941 46.237 23.9683 46.438 24.1929 46.5797C24.4191 46.7196 24.6763 46.7896 24.9644 46.7896C25.2557 46.7896 25.5129 46.7196 25.7358 46.5797C25.9604 46.438 26.133 46.2362 26.2534 45.9742ZM25.5918 43.9649C25.7415 44.1749 25.8164 44.4768 25.8164 44.8707V45.0562C25.8164 45.4566 25.7423 45.761 25.5942 45.9693C25.4478 46.1776 25.2378 46.2818 24.9644 46.2818C24.6942 46.2818 24.4826 46.1752 24.3296 45.962C24.1782 45.7488 24.1025 45.4468 24.1025 45.0562V44.8511C24.1058 44.4686 24.1823 44.1732 24.332 43.9649C24.4834 43.7549 24.6925 43.65 24.9595 43.65C25.2329 43.65 25.4437 43.7549 25.5918 43.9649Z" />
</symbol>

<symbol id="cli-2" viewBox="0 0 106 53">
<path fill-rule="evenodd" clip-rule="evenodd" d="M50.1136 6.0215H49.977C49.7671 6.00878 49.5571 6.0037 49.3471 5.99861H49.3471H49.3269H48.8918C48.4946 5.99861 48.0898 6.00878 47.6876 6.02912C47.6573 6.02692 47.6269 6.02692 47.5966 6.02912C43.9522 6.23561 40.3817 7.14649 37.0805 8.7119L36.6479 8.92042V31.0616L37.6598 30.7183C38.5477 30.4131 39.4938 30.1385 40.4728 29.8842C43.1193 29.2048 45.8367 28.8437 48.568 28.8085V31.7176C48.2062 31.7202 47.8546 31.7303 47.503 31.7481H47.4195C45.3175 31.8634 43.2317 32.1837 41.1913 32.7043C38.6072 33.3512 36.1143 34.3226 33.7716 35.5956V7.19886C36.2047 5.77973 38.8253 4.71385 41.5556 4.03294C43.9527 3.41403 46.4169 3.09628 48.8918 3.08698H49.3193C49.8303 3.09969 50.3287 3.12258 50.7967 3.15818C52.0297 3.24475 53.2528 3.4396 54.4521 3.7405V6.60382C53.2874 6.33248 52.1032 6.15393 50.9105 6.06981C50.8863 6.06777 50.8621 6.0657 50.8379 6.06363C50.5911 6.04258 50.344 6.0215 50.1136 6.0215ZM55.1528 8.94836C55.7877 8.99667 56.4455 9.01956 57.1108 9.01956C59.7125 9.01005 62.3031 8.67781 64.8239 8.03037C67.4068 7.38094 69.8986 6.40875 72.2411 5.13654V33.0272C69.8067 34.4455 67.1853 35.5113 64.4546 36.1931C62.0571 36.8097 59.5931 37.1265 57.1184 37.1365C55.2433 37.1517 53.3737 36.9313 51.553 36.4805V8.40926C51.983 8.50844 52.4257 8.59998 52.876 8.67627C53.6147 8.80087 54.3939 8.89242 55.1528 8.94836ZM69.3471 9.16451L68.3352 9.50526C67.4042 9.81804 66.4657 10.0978 65.5221 10.347C62.7749 11.0529 59.9514 11.4151 57.1158 11.4252C56.4556 11.4252 55.8485 11.4074 55.2616 11.3692L54.4546 11.3158V31.4048V34.0927L55.1477 34.1537C55.7903 34.2096 56.4531 34.2376 57.1209 34.2376C59.3544 34.2281 61.5781 33.9403 63.7412 33.3806C65.5223 32.9339 67.2552 32.3112 68.9145 31.5218L69.3471 31.3133V9.16451Z" />
<path d="M35.7371 45.2994C35.5917 45.1485 35.4163 45.0301 35.2224 44.9516C35.0284 44.8732 34.8203 44.8366 34.6114 44.8442C34.3888 44.8413 34.1678 44.8828 33.9613 44.9663C33.7719 45.0417 33.5998 45.1551 33.4553 45.2994C33.3125 45.4442 33.2013 45.6175 33.129 45.808C33.0497 46.0077 33.0101 46.2211 33.0126 46.4361V50.2301C33.0036 50.4975 33.0546 50.7634 33.1619 51.0083C33.2514 51.2027 33.3807 51.376 33.5413 51.5168C33.693 51.6445 33.871 51.7366 34.0625 51.7864C34.2469 51.8382 34.4376 51.8648 34.6291 51.8652C34.8404 51.8673 35.0495 51.8222 35.2413 51.733C35.4309 51.65 35.6028 51.5308 35.7473 51.3821C35.8881 51.2347 36.0005 51.0622 36.0786 50.8735C36.1597 50.6822 36.201 50.4762 36.2001 50.2683V49.8436H35.2084V50.1818C35.2114 50.2973 35.1916 50.4122 35.1502 50.52C35.1179 50.6008 35.0688 50.6736 35.006 50.7336C34.9446 50.7833 34.8742 50.8204 34.7986 50.843C34.7316 50.8653 34.6617 50.8773 34.5912 50.8786C34.5026 50.8889 34.413 50.8755 34.3312 50.8398C34.2495 50.804 34.1786 50.7473 34.1257 50.6751C34.0322 50.5227 33.9864 50.3455 33.9942 50.1666V46.6294C33.988 46.4332 34.0297 46.2385 34.1156 46.0623C34.1671 45.9822 34.2399 45.9183 34.3258 45.8778C34.4117 45.8374 34.5071 45.822 34.6013 45.8334C34.6868 45.8304 34.7717 45.8482 34.8488 45.8854C34.9259 45.9226 34.9929 45.9781 35.044 46.047C35.155 46.1927 35.213 46.3722 35.2084 46.5556V46.8837H36.19V46.4971C36.1919 46.2701 36.1507 46.0449 36.0685 45.8334C35.9953 45.6347 35.8825 45.453 35.7371 45.2994Z" />
<path d="M41.6289 45.2561C41.3127 44.9891 40.9136 44.8416 40.5007 44.8391C40.2987 44.84 40.0984 44.8761 39.9087 44.9459C39.7161 45.0149 39.5384 45.1202 39.3851 45.2561C39.2208 45.4038 39.0897 45.585 39.0005 45.7876C38.9006 46.0194 38.8515 46.27 38.8563 46.5225V50.1614C38.8495 50.4174 38.8987 50.6718 39.0005 50.9065C39.0903 51.1022 39.2215 51.2758 39.3851 51.4151C39.5367 51.5558 39.7147 51.6648 39.9087 51.7355C40.0984 51.8053 40.2987 51.8414 40.5007 51.8423C40.7027 51.8419 40.9031 51.8058 41.0926 51.7355C41.29 51.6638 41.4719 51.5551 41.6289 51.4151C41.7871 51.2732 41.9145 51.1 42.0033 50.9065C42.1051 50.6718 42.1544 50.4174 42.1475 50.1614V46.5225C42.1524 46.27 42.1032 46.0194 42.0033 45.7876C41.9151 45.5871 41.7878 45.4064 41.6289 45.2561ZM41.166 50.1614C41.1743 50.2584 41.1609 50.356 41.1268 50.4471C41.0926 50.5382 41.0386 50.6205 40.9687 50.6878C40.8377 50.7977 40.6725 50.8578 40.5019 50.8578C40.3313 50.8578 40.1662 50.7977 40.0352 50.6878C39.9652 50.6205 39.9112 50.5382 39.8771 50.4471C39.8429 50.356 39.8295 50.2584 39.8379 50.1614V46.5225C39.8295 46.4255 39.8429 46.3279 39.8771 46.2368C39.9112 46.1457 39.9652 46.0635 40.0352 45.9961C40.1662 45.8863 40.3313 45.8261 40.5019 45.8261C40.6725 45.8261 40.8377 45.8863 40.9687 45.9961C41.0386 46.0635 41.0926 46.1457 41.1268 46.2368C41.1609 46.3279 41.1743 46.4255 41.166 46.5225V50.1614Z" />
<path d="M49.3673 51.7864V44.8977H48.4136L47.1614 48.5442H47.1437L45.8813 44.8977H44.9377V51.7864H45.9218V47.5957H45.9395L46.9033 50.5582H47.3941L48.3655 47.5957H48.3832V51.7864H49.3673Z" />
<path d="M54.9581 45.3807C54.8065 45.2107 54.6153 45.0814 54.4015 45.0043C54.1712 44.9294 53.9302 44.8933 53.6881 44.8975H52.226V51.7863H53.2075V49.0959H53.7134C54.0197 49.1098 54.3244 49.0451 54.5988 48.9077C54.822 48.7838 55.0081 48.602 55.1377 48.3813C55.2512 48.1981 55.3277 47.9942 55.3628 47.7812C55.4014 47.522 55.4192 47.2601 55.4159 46.998C55.4255 46.6672 55.3932 46.3365 55.3198 46.0139C55.2543 45.7755 55.1299 45.5577 54.9581 45.3807ZM54.4521 47.4812C54.4479 47.6059 54.4168 47.7282 54.361 47.8397C54.3049 47.9456 54.2162 48.0304 54.1081 48.0813C53.9627 48.1463 53.8041 48.1759 53.6451 48.1677H53.1974V45.8257H53.7033C53.8557 45.8182 54.0075 45.8479 54.146 45.9122C54.2475 45.9704 54.3281 46.0594 54.3762 46.1665C54.4299 46.2875 54.4591 46.418 54.4622 46.5504C54.4622 46.6954 54.4622 46.848 54.4622 47.0082C54.4622 47.1684 54.4723 47.3337 54.4622 47.4812H54.4521Z" />
<path d="M59.6077 44.8977H58.8032L57.2854 51.7864H58.2669L58.5553 50.3065H59.8935L60.1819 51.7864H61.1635L59.6077 44.8977ZM58.702 49.3681L59.1852 46.871H59.2029L59.6836 49.3681H58.702Z" />
<path d="M65.9497 49.0477H65.932L64.4496 44.8977H63.506V51.7864H64.4875V47.644H64.5078L66.0079 51.7864H66.9312V44.8977H65.9497V49.0477Z" />
<path d="M71.9476 44.8977L71.1583 47.6364H71.1381L70.3488 44.8977H69.3091L70.6574 48.8748V51.7864H71.639V48.8748L72.9873 44.8977H71.9476Z" />
</symbol>

<symbol id="cli-3" viewBox="0 0 45 42" >
<path d="M7.40628 41.1885C7.42219 41.1888 7.43786 41.192 7.45238 41.1977C7.46689 41.2034 7.47995 41.2115 7.4908 41.2216L7.70892 41.4301C7.53961 41.5989 7.33035 41.7338 7.09546 41.8258C6.82039 41.9261 6.52394 41.9746 6.22572 41.9679C5.94548 41.973 5.66705 41.9278 5.40777 41.8353C5.17389 41.7503 4.96376 41.6226 4.79159 41.4609C4.61588 41.2932 4.48054 41.0967 4.39353 40.8828C4.29824 40.6445 4.25119 40.3936 4.25448 40.1413C4.25061 39.8873 4.30147 39.635 4.40443 39.3973C4.49968 39.1821 4.64335 38.9856 4.82704 38.8192C5.01321 38.6561 5.23592 38.5279 5.48139 38.4425C5.74992 38.3521 6.03588 38.307 6.32387 38.3098C6.59138 38.3042 6.85747 38.3453 7.10637 38.4307C7.32231 38.5121 7.52058 38.6251 7.69256 38.7647L7.50988 38.9874C7.49726 39.0031 7.48158 39.0168 7.46353 39.0277C7.44198 39.0406 7.41593 39.0464 7.38992 39.0443C7.36162 39.0426 7.33434 39.0344 7.31085 39.0206L7.2127 38.9614L7.07637 38.8856C7.01753 38.8574 6.95649 38.8329 6.8937 38.8121C6.81283 38.787 6.72989 38.7672 6.64559 38.7529C6.5386 38.7358 6.42992 38.7278 6.32114 38.7292C6.11376 38.7269 5.90796 38.7608 5.71587 38.8287C5.53672 38.8916 5.37501 38.9869 5.24146 39.1083C5.10551 39.2373 5.00074 39.3888 4.93337 39.5537C4.85658 39.7423 4.81874 39.9412 4.82158 40.1413C4.81831 40.3444 4.85615 40.5465 4.93337 40.7383C4.9999 40.9018 5.10272 41.0523 5.23601 41.1814C5.36088 41.3017 5.51567 41.3956 5.6886 41.4562C5.86657 41.5203 6.0576 41.5525 6.25025 41.551C6.36154 41.5524 6.47278 41.5461 6.58288 41.532C6.76267 41.5129 6.93513 41.4587 7.08728 41.3733C7.16359 41.3295 7.23563 41.2804 7.30267 41.2264C7.3307 41.2031 7.36756 41.1896 7.40628 41.1885Z" />
<path d="M13.7044 40.1408C13.7078 40.3922 13.6579 40.642 13.5572 40.8776C13.4684 41.0914 13.3284 41.2863 13.1465 41.4497C12.9646 41.613 12.745 41.741 12.5021 41.8252C11.9683 42.0022 11.3782 42.0022 10.8444 41.8252C10.603 41.7397 10.3848 41.6114 10.2037 41.4486C10.0219 41.2822 9.88095 41.0856 9.78927 40.8705C9.59287 40.3933 9.59287 39.8718 9.78927 39.3946C9.88228 39.1794 10.0231 38.9822 10.2037 38.8142C10.3864 38.6564 10.6045 38.533 10.8444 38.4517C11.3775 38.2716 11.969 38.2716 12.5021 38.4517C12.7443 38.5372 12.9634 38.6655 13.1455 38.8284C13.325 38.9931 13.465 39.1872 13.5572 39.3993C13.6582 39.6366 13.7081 39.8879 13.7044 40.1408ZM13.1319 40.1408C13.1362 39.9398 13.1011 39.7395 13.0283 39.5486C12.9672 39.385 12.8679 39.2342 12.7366 39.1056C12.6087 38.9839 12.4513 38.8884 12.2758 38.826C11.8879 38.6965 11.4586 38.6965 11.0707 38.826C10.8952 38.8884 10.7378 38.9839 10.6099 39.1056C10.4768 39.2335 10.3764 39.3845 10.3155 39.5486C10.1768 39.9342 10.1768 40.3475 10.3155 40.7331C10.377 40.897 10.4773 41.0479 10.6099 41.1761C10.7379 41.2971 10.8953 41.3918 11.0707 41.4533C11.4593 41.5795 11.8872 41.5795 12.2758 41.4533C12.4512 41.3918 12.6086 41.2971 12.7366 41.1761C12.8673 41.0471 12.9665 40.8964 13.0283 40.7331C13.1015 40.5423 13.1365 40.342 13.1319 40.1408Z" />
<path d="M18.0013 40.7617L18.0586 40.8944C18.0804 40.847 18.0995 40.8044 18.1213 40.7617C18.1421 40.7172 18.1657 40.6737 18.1922 40.6315L19.5854 38.4309C19.6127 38.393 19.6372 38.3693 19.6645 38.3622C19.7015 38.3524 19.7403 38.3484 19.779 38.3503H20.1907V41.9295H19.7026V39.2978C19.7026 39.2647 19.7026 39.2268 19.7026 39.1865C19.7 39.1455 19.7 39.1044 19.7026 39.0633L18.3012 41.2947C18.2834 41.3281 18.255 41.3564 18.2192 41.3761C18.1834 41.3959 18.1418 41.4063 18.0995 41.406H18.0204C17.9779 41.4066 17.9362 41.3963 17.9004 41.3765C17.8646 41.3568 17.8362 41.3283 17.8186 41.2947L16.3763 39.0491C16.3763 39.0918 16.3763 39.1344 16.3763 39.177C16.3763 39.2197 16.3763 39.2576 16.3763 39.2907V41.9224H15.9047V38.3503H16.3164C16.355 38.3484 16.3938 38.3524 16.4309 38.3622C16.4647 38.3767 16.4916 38.401 16.5072 38.4309L17.9304 40.6338C17.9584 40.6745 17.9821 40.7174 18.0013 40.7617Z" />
<path d="M23.2443 40.5839V41.9246H22.699V38.3502H23.915C24.1446 38.3464 24.3735 38.3727 24.5939 38.4284C24.7704 38.4718 24.9341 38.5478 25.0738 38.651C25.1949 38.7478 25.2883 38.8679 25.3464 39.0016C25.4108 39.1474 25.4423 39.3026 25.4391 39.4588C25.4415 39.6155 25.4072 39.7711 25.3383 39.9159C25.2727 40.0531 25.172 40.1754 25.0438 40.2736C24.9039 40.3812 24.7395 40.4619 24.5612 40.5105C24.3489 40.5694 24.1269 40.5974 23.9041 40.5934L23.2443 40.5839ZM23.2443 40.2002H23.9041C24.0475 40.2018 24.1901 40.1834 24.3267 40.1457C24.4394 40.1127 24.5433 40.0604 24.6321 39.9917C24.714 39.9262 24.7775 39.8451 24.8175 39.7549C24.8621 39.6594 24.8844 39.5571 24.8829 39.454C24.8893 39.3547 24.8706 39.2553 24.8282 39.1628C24.7859 39.0704 24.7208 38.9871 24.6376 38.9187C24.4293 38.7774 24.1676 38.709 23.9041 38.7268H23.2443V40.2002Z" />
<path d="M30.5731 41.9294H30.1423C30.0991 41.9309 30.0566 41.9191 30.0223 41.8963C29.9914 41.874 29.9671 41.8455 29.9514 41.8133L29.5806 40.9487H27.7185L27.334 41.8133C27.3199 41.845 27.2964 41.8727 27.2659 41.8939C27.2312 41.9181 27.1877 41.9308 27.1432 41.9294H26.7124L28.3483 38.3499H28.9154L30.5731 41.9294ZM27.8739 40.6004H29.4116L28.7627 39.1435C28.7131 39.0339 28.6721 38.9215 28.64 38.8071L28.5773 38.9942C28.5582 39.0511 28.5364 39.1032 28.5173 39.1458L27.8739 40.6004Z" />
<path d="M32.9288 38.3665C32.9614 38.382 32.9894 38.4039 33.0106 38.4305L35.3962 41.1287C35.3962 41.0861 35.3962 41.0435 35.3962 41.0032C35.3962 40.9629 35.3962 40.9226 35.3962 40.8847V38.3499H35.8843V41.9294H35.6116C35.5729 41.9305 35.5345 41.9231 35.4998 41.9081C35.4662 41.8911 35.4365 41.8685 35.4126 41.8418L33.0297 39.1459C33.0323 39.1869 33.0323 39.2281 33.0297 39.2691C33.0297 39.3094 33.0297 39.3449 33.0297 39.3781V41.9294H32.5416V38.3499H32.8306C32.8644 38.3491 32.8979 38.3548 32.9288 38.3665Z" />
<path d="M39.9031 40.5058V41.9272H39.3578V40.5058L37.85 38.3501H38.3381C38.3801 38.3479 38.4217 38.3588 38.4553 38.3809C38.485 38.4039 38.5099 38.4311 38.5289 38.4614L39.4723 39.852C39.5105 39.9112 39.5432 39.9657 39.5705 40.0178C39.5977 40.07 39.6195 40.1197 39.6386 40.1695L39.7095 40.0155C39.736 39.9592 39.7669 39.9045 39.8022 39.852L40.7319 38.452C40.7515 38.424 40.7753 38.3985 40.8028 38.3761C40.8352 38.3516 40.8772 38.3389 40.9201 38.3406H41.4136L39.9031 40.5058Z" />
<path d="M17.7314 32.3431C17.9686 32.3692 18.2086 32.3905 18.4512 32.4094C22.1301 30.9796 25.2422 28.6393 27.3987 25.6812C29.5552 22.723 30.6603 19.2782 30.5759 15.7774L26.5216 12.2548C27.346 15.9821 26.9604 19.8352 25.408 23.3829C23.8555 26.9306 21.1976 30.0331 17.7314 32.3431Z" />
<path d="M16.2837 32.1793L16.3928 32.1982C20.0966 29.8964 22.9205 26.682 24.4993 22.9708C26.078 19.2597 26.3389 15.2223 25.2483 11.3809L19.4737 6.36371C21.8094 10.4877 22.7495 15.1031 22.1848 19.6731C21.6201 24.2432 19.5737 28.58 16.2837 32.1793Z" />
<path d="M35.8679 19.9136C34.8868 23.7602 32.5041 27.2293 29.0735 29.8059C28.0716 30.5626 26.9909 31.2366 25.8454 31.8194C28.6389 31.1061 31.2065 29.8448 33.3502 28.133C35.494 26.4212 37.1566 24.3044 38.21 21.9461L35.8679 19.9136Z" />
<path d="M34.9491 19.3472L31.6146 16.45C31.5509 19.7531 30.4701 22.9811 28.4846 25.7985C26.4991 28.6158 23.6814 30.9198 20.3243 32.4708H20.3406C21.0888 32.4706 21.8362 32.4318 22.5791 32.3547C25.7165 31.2421 28.488 29.472 30.6465 27.2023C32.8049 24.9326 34.2831 22.234 34.9491 19.3472Z" />
<path d="M16.7663 4.24794L12.7883 0.786987C9.23222 1.98094 6.1738 4.07987 4.01337 6.80906C1.85294 9.53825 0.69115 12.7706 0.680054 16.0829H0.680054C0.693382 19.743 2.11126 23.2947 4.70929 26.1758C7.30731 29.057 10.9371 31.103 15.0241 31.9901C18.6725 28.128 20.8086 23.3558 21.1219 18.3668C21.4352 13.3778 19.9094 8.43198 16.7663 4.24794Z" />
<path d="M44.1401 18.8144C44.1257 14.4719 42.1339 10.3108 38.5997 7.24022C35.0656 4.16961 30.2764 2.43902 25.2784 2.42652C22.9688 2.42444 20.6789 2.79473 18.5249 3.51857L42.8805 24.6797C43.7144 22.8091 44.1415 20.8203 44.1401 18.8144Z" />
</symbol>

<symbol id="foster" viewBox="0 0 85 42">
<path d="M13.1462 13.1899H13.1433C10.7453 13.1899 8.80127 14.9175 8.80127 17.0485V17.0511C8.80127 19.1822 10.7453 20.9098 13.1433 20.9098H13.1462C15.5442 20.9098 17.4882 19.1822 17.4882 17.0511V17.0485C17.4882 14.9175 15.5442 13.1899 13.1462 13.1899Z" />
<path d="M45.195 11.9563C45.1882 8.99633 43.8623 6.15926 41.5074 4.06599C39.1525 1.97271 35.9604 0.793708 32.6297 0.786987V0.786987C29.298 0.792365 26.1045 1.97078 23.7484 4.0642C21.3922 6.15762 20.0655 8.99545 20.0587 11.9563V28.2792C20.0587 28.2792 45.1922 25.7914 45.195 11.9589V11.9563Z" />
<path d="M0 33.6365C0.00604098 35.6961 0.929149 37.6698 2.56761 39.1264C4.20607 40.583 6.42668 41.404 8.74418 41.4101C11.0612 41.4041 13.2814 40.5834 14.9197 39.1273C16.5581 37.6713 17.4816 35.6982 17.4884 33.639V22.2814C17.4884 22.2814 0 24.0136 0 33.6365ZM8.74418 35.6715C8.2913 35.6715 7.84859 35.5521 7.47203 35.3285C7.09548 35.1049 6.80199 34.7871 6.62868 34.4153C6.45537 34.0434 6.41002 33.6342 6.49838 33.2395C6.58673 32.8448 6.80481 32.4822 7.12505 32.1976C7.44528 31.913 7.85328 31.7192 8.29746 31.6406C8.74164 31.5621 9.20204 31.6024 9.62045 31.7564C10.0389 31.9105 10.3965 32.1713 10.6481 32.5059C10.8997 32.8406 11.034 33.234 11.034 33.6365C11.0351 33.9044 10.9767 34.1698 10.8622 34.4176C10.7476 34.6654 10.5791 34.8906 10.3664 35.0804C10.1536 35.2702 9.90081 35.4207 9.62244 35.5235C9.34406 35.6262 9.04561 35.6791 8.74418 35.6791V35.6715Z" />
<path d="M24.7302 32.0283V36.2939H23.8513V32.0283H24.7302ZM26.4294 33.8506V34.5361H24.4899V33.8506H26.4294ZM26.6345 32.0283V32.7168H24.4899V32.0283H26.6345ZM30.6481 34.0615V34.2637C30.6481 34.5879 30.6042 34.8789 30.5163 35.1367C30.4284 35.3945 30.3044 35.6143 30.1442 35.7959C29.9841 35.9756 29.7927 36.1133 29.57 36.209C29.3493 36.3047 29.1042 36.3525 28.8347 36.3525C28.5671 36.3525 28.322 36.3047 28.0993 36.209C27.8786 36.1133 27.6872 35.9756 27.5251 35.7959C27.363 35.6143 27.237 35.3945 27.1472 35.1367C27.0593 34.8789 27.0153 34.5879 27.0153 34.2637V34.0615C27.0153 33.7354 27.0593 33.4443 27.1472 33.1885C27.235 32.9307 27.3591 32.7109 27.5192 32.5293C27.6813 32.3477 27.8727 32.209 28.0934 32.1133C28.3161 32.0176 28.5612 31.9697 28.8288 31.9697C29.0983 31.9697 29.3434 32.0176 29.5641 32.1133C29.7868 32.209 29.9782 32.3477 30.1384 32.5293C30.3005 32.7109 30.4255 32.9307 30.5134 33.1885C30.6032 33.4443 30.6481 33.7354 30.6481 34.0615ZM29.7604 34.2637V34.0557C29.7604 33.8291 29.7399 33.6299 29.6989 33.458C29.6579 33.2861 29.5974 33.1416 29.5173 33.0244C29.4372 32.9072 29.3395 32.8193 29.2243 32.7607C29.1091 32.7002 28.9772 32.6699 28.8288 32.6699C28.6804 32.6699 28.5485 32.7002 28.4333 32.7607C28.32 32.8193 28.2233 32.9072 28.1432 33.0244C28.0651 33.1416 28.0056 33.2861 27.9645 33.458C27.9235 33.6299 27.903 33.8291 27.903 34.0557V34.2637C27.903 34.4883 27.9235 34.6875 27.9645 34.8613C28.0056 35.0332 28.0661 35.1787 28.1462 35.2979C28.2263 35.415 28.3239 35.5039 28.4391 35.5645C28.5544 35.625 28.6862 35.6553 28.8347 35.6553C28.9831 35.6553 29.1149 35.625 29.2302 35.5645C29.3454 35.5039 29.4421 35.415 29.5202 35.2979C29.5983 35.1787 29.6579 35.0332 29.6989 34.8613C29.7399 34.6875 29.7604 34.4883 29.7604 34.2637ZM33.5016 35.1777C33.5016 35.1016 33.4899 35.0332 33.4665 34.9727C33.445 34.9102 33.404 34.8535 33.3434 34.8027C33.2829 34.75 33.1979 34.6982 33.0886 34.6475C32.9792 34.5967 32.8376 34.5439 32.6638 34.4893C32.4704 34.4268 32.2868 34.3564 32.113 34.2783C31.9411 34.2002 31.7888 34.1094 31.6559 34.0059C31.5251 33.9004 31.4216 33.7783 31.3454 33.6396C31.2712 33.501 31.2341 33.3398 31.2341 33.1562C31.2341 32.9785 31.2731 32.8174 31.3513 32.6729C31.4294 32.5264 31.5388 32.4014 31.6794 32.2979C31.82 32.1924 31.986 32.1113 32.1774 32.0547C32.3708 31.998 32.5827 31.9697 32.8132 31.9697C33.1276 31.9697 33.402 32.0264 33.6364 32.1396C33.8708 32.2529 34.0524 32.4082 34.1813 32.6055C34.3122 32.8027 34.3776 33.0283 34.3776 33.2822H33.5046C33.5046 33.1572 33.4782 33.0479 33.4255 32.9541C33.3747 32.8584 33.2966 32.7832 33.1911 32.7285C33.0876 32.6738 32.9567 32.6465 32.7985 32.6465C32.6462 32.6465 32.5192 32.6699 32.4177 32.7168C32.3161 32.7617 32.2399 32.8232 32.1891 32.9014C32.1384 32.9775 32.113 33.0635 32.113 33.1592C32.113 33.2314 32.1306 33.2969 32.1657 33.3555C32.2028 33.4141 32.2575 33.4688 32.3298 33.5195C32.402 33.5703 32.4909 33.6182 32.5964 33.6631C32.7018 33.708 32.8239 33.752 32.9626 33.7949C33.195 33.8652 33.3991 33.9443 33.5749 34.0322C33.7526 34.1201 33.9011 34.2188 34.0202 34.3281C34.1393 34.4375 34.2292 34.5615 34.2897 34.7002C34.3503 34.8389 34.3806 34.9961 34.3806 35.1719C34.3806 35.3574 34.3444 35.5234 34.2722 35.6699C34.1999 35.8164 34.0954 35.9404 33.9587 36.042C33.822 36.1436 33.6589 36.2207 33.4694 36.2734C33.28 36.3262 33.0681 36.3525 32.8337 36.3525C32.6227 36.3525 32.4147 36.3252 32.2097 36.2705C32.0046 36.2139 31.8181 36.1289 31.6501 36.0156C31.4841 35.9023 31.3513 35.7578 31.2516 35.582C31.152 35.4062 31.1022 35.1982 31.1022 34.958H31.9841C31.9841 35.0908 32.0046 35.2031 32.0456 35.2949C32.0866 35.3867 32.1442 35.4609 32.2184 35.5176C32.2946 35.5742 32.3845 35.6152 32.488 35.6406C32.5934 35.666 32.7087 35.6787 32.8337 35.6787C32.986 35.6787 33.111 35.6572 33.2087 35.6143C33.3083 35.5713 33.3815 35.5117 33.4284 35.4355C33.4772 35.3594 33.5016 35.2734 33.5016 35.1777ZM36.8854 32.0283V36.2939H36.0095V32.0283H36.8854ZM38.1979 32.0283V32.7168H34.7175V32.0283H38.1979ZM41.5612 35.6084V36.2939H39.2907V35.6084H41.5612ZM39.5778 32.0283V36.2939H38.6989V32.0283H39.5778ZM41.2653 33.7656V34.4336H39.2907V33.7656H41.2653ZM41.5583 32.0283V32.7168H39.2907V32.0283H41.5583ZM42.0739 32.0283H43.6647C43.9909 32.0283 44.2712 32.0771 44.5056 32.1748C44.7419 32.2725 44.9235 32.417 45.0505 32.6084C45.1774 32.7998 45.2409 33.0352 45.2409 33.3145C45.2409 33.543 45.2018 33.7393 45.1237 33.9033C45.0475 34.0654 44.9391 34.2012 44.7985 34.3105C44.6599 34.418 44.4968 34.5039 44.3093 34.5684L44.0309 34.7148H42.6481L42.6423 34.0293H43.6706C43.8249 34.0293 43.9528 34.002 44.0544 33.9473C44.1559 33.8926 44.2321 33.8164 44.2829 33.7188C44.3356 33.6211 44.362 33.5078 44.362 33.3789C44.362 33.2422 44.3366 33.124 44.2858 33.0244C44.235 32.9248 44.1579 32.8486 44.0544 32.7959C43.9509 32.7432 43.821 32.7168 43.6647 32.7168H42.9528V36.2939H42.0739V32.0283ZM44.4587 36.2939L43.486 34.3926L44.4147 34.3867L45.3991 36.2529V36.2939H44.4587ZM49.0729 34.7734H47.986V34.0879H49.0729C49.2409 34.0879 49.3776 34.0605 49.4831 34.0059C49.5886 33.9492 49.6657 33.8711 49.7145 33.7715C49.7634 33.6719 49.7878 33.5596 49.7878 33.4346C49.7878 33.3076 49.7634 33.1895 49.7145 33.0801C49.6657 32.9707 49.5886 32.8828 49.4831 32.8164C49.3776 32.75 49.2409 32.7168 49.0729 32.7168H48.2907V36.2939H47.4118V32.0283H49.0729C49.4069 32.0283 49.6931 32.0889 49.9313 32.21C50.1716 32.3291 50.3552 32.4941 50.4821 32.7051C50.6091 32.916 50.6725 33.1572 50.6725 33.4287C50.6725 33.7041 50.6091 33.9424 50.4821 34.1436C50.3552 34.3447 50.1716 34.5 49.9313 34.6094C49.6931 34.7188 49.4069 34.7734 49.0729 34.7734ZM54.1413 35.6084V36.2939H51.8708V35.6084H54.1413ZM52.1579 32.0283V36.2939H51.279V32.0283H52.1579ZM53.8454 33.7656V34.4336H51.8708V33.7656H53.8454ZM54.1384 32.0283V32.7168H51.8708V32.0283H54.1384ZM56.6198 32.0283V36.2939H55.7438V32.0283H56.6198ZM57.9323 32.0283V32.7168H54.4518V32.0283H57.9323ZM61.2956 35.6084V36.2939H59.0251V35.6084H61.2956ZM59.3122 32.0283V36.2939H58.4333V32.0283H59.3122ZM60.9997 33.7656V34.4336H59.0251V33.7656H60.9997ZM61.2927 32.0283V32.7168H59.0251V32.0283H61.2927ZM61.8083 32.0283H63.3991C63.7253 32.0283 64.0056 32.0771 64.2399 32.1748C64.4763 32.2725 64.6579 32.417 64.7849 32.6084C64.9118 32.7998 64.9753 33.0352 64.9753 33.3145C64.9753 33.543 64.9362 33.7393 64.8581 33.9033C64.7819 34.0654 64.6735 34.2012 64.5329 34.3105C64.3942 34.418 64.2311 34.5039 64.0436 34.5684L63.7653 34.7148H62.3825L62.3766 34.0293H63.405C63.5593 34.0293 63.6872 34.002 63.7888 33.9473C63.8903 33.8926 63.9665 33.8164 64.0173 33.7188C64.07 33.6211 64.0964 33.5078 64.0964 33.3789C64.0964 33.2422 64.071 33.124 64.0202 33.0244C63.9694 32.9248 63.8923 32.8486 63.7888 32.7959C63.6852 32.7432 63.5554 32.7168 63.3991 32.7168H62.6872V36.2939H61.8083V32.0283ZM64.1931 36.2939L63.2204 34.3926L64.1491 34.3867L65.1335 36.2529V36.2939H64.1931ZM67.8727 35.1777C67.8727 35.1016 67.861 35.0332 67.8376 34.9727C67.8161 34.9102 67.7751 34.8535 67.7145 34.8027C67.654 34.75 67.569 34.6982 67.4597 34.6475C67.3503 34.5967 67.2087 34.5439 67.0349 34.4893C66.8415 34.4268 66.6579 34.3564 66.4841 34.2783C66.3122 34.2002 66.1599 34.1094 66.027 34.0059C65.8962 33.9004 65.7927 33.7783 65.7165 33.6396C65.6423 33.501 65.6052 33.3398 65.6052 33.1562C65.6052 32.9785 65.6442 32.8174 65.7224 32.6729C65.8005 32.5264 65.9099 32.4014 66.0505 32.2979C66.1911 32.1924 66.3571 32.1113 66.5485 32.0547C66.7419 31.998 66.9538 31.9697 67.1843 31.9697C67.4987 31.9697 67.7731 32.0264 68.0075 32.1396C68.2419 32.2529 68.4235 32.4082 68.5524 32.6055C68.6833 32.8027 68.7487 33.0283 68.7487 33.2822H67.8757C67.8757 33.1572 67.8493 33.0479 67.7966 32.9541C67.7458 32.8584 67.6677 32.7832 67.5622 32.7285C67.4587 32.6738 67.3278 32.6465 67.1696 32.6465C67.0173 32.6465 66.8903 32.6699 66.7888 32.7168C66.6872 32.7617 66.611 32.8232 66.5602 32.9014C66.5095 32.9775 66.4841 33.0635 66.4841 33.1592C66.4841 33.2314 66.5016 33.2969 66.5368 33.3555C66.5739 33.4141 66.6286 33.4688 66.7009 33.5195C66.7731 33.5703 66.862 33.6182 66.9675 33.6631C67.0729 33.708 67.195 33.752 67.3337 33.7949C67.5661 33.8652 67.7702 33.9443 67.946 34.0322C68.1237 34.1201 68.2722 34.2188 68.3913 34.3281C68.5104 34.4375 68.6003 34.5615 68.6608 34.7002C68.7214 34.8389 68.7516 34.9961 68.7516 35.1719C68.7516 35.3574 68.7155 35.5234 68.6432 35.6699C68.571 35.8164 68.4665 35.9404 68.3298 36.042C68.1931 36.1436 68.03 36.2207 67.8405 36.2734C67.6511 36.3262 67.4391 36.3525 67.2048 36.3525C66.9938 36.3525 66.7858 36.3252 66.5807 36.2705C66.3757 36.2139 66.1891 36.1289 66.0212 36.0156C65.8552 35.9023 65.7224 35.7578 65.6227 35.582C65.5231 35.4062 65.4733 35.1982 65.4733 34.958H66.3552C66.3552 35.0908 66.3757 35.2031 66.4167 35.2949C66.4577 35.3867 66.5153 35.4609 66.5895 35.5176C66.6657 35.5742 66.7556 35.6152 66.8591 35.6406C66.9645 35.666 67.0798 35.6787 67.2048 35.6787C67.3571 35.6787 67.4821 35.6572 67.5798 35.6143C67.6794 35.5713 67.7526 35.5117 67.7995 35.4355C67.8483 35.3594 67.8727 35.2734 67.8727 35.1777Z" />
</symbol>

<symbol id="brand" viewBox="0 0 63 47">
<path d="M4.7569 38.8221C5.00058 39.0983 5.13038 39.4441 5.12358 39.7991C5.13601 40.0307 5.0914 40.2618 4.99304 40.4754C4.89469 40.689 4.74511 40.8797 4.55539 41.0332C4.08201 41.3605 3.49555 41.5205 2.90369 41.4838H0V35.2924H2.84423C3.40566 35.2582 3.96263 35.4036 4.41995 35.7037C4.60363 35.8445 4.74908 36.0224 4.84482 36.2235C4.94055 36.4245 4.98396 36.6431 4.97162 36.8622C4.98831 37.2037 4.87115 37.5395 4.64128 37.8089C4.42059 38.0549 4.1156 38.2254 3.77579 38.2928C4.16101 38.3572 4.50873 38.5448 4.7569 38.8221ZM1.35109 37.8875H2.56674C2.84303 37.9062 3.11743 37.8332 3.33974 37.6819C3.43101 37.6061 3.50203 37.5122 3.54728 37.4073C3.59254 37.3024 3.61082 37.1893 3.60071 37.0769C3.60929 36.9649 3.59063 36.8526 3.54607 36.748C3.50151 36.6434 3.43217 36.5491 3.34304 36.472C3.11408 36.3164 2.83115 36.2422 2.54692 36.2633H1.35109V37.8875ZM3.45866 40.2619C3.55623 40.1843 3.63292 40.0872 3.68277 39.9781C3.73262 39.869 3.75428 39.7508 3.74606 39.6328C3.7535 39.5133 3.73085 39.3939 3.67988 39.2838C3.6289 39.1737 3.55095 39.0757 3.45205 38.9976C3.21421 38.8361 2.9217 38.7569 2.6262 38.7738H1.35109V40.4766H2.64272C2.93345 40.492 3.22122 40.4163 3.45866 40.2619Z" />
<path d="M10.5709 41.4839L8.98857 39.0641H8.39396V41.4839H7.03296V35.2924H9.60961C10.2591 35.2509 10.9012 35.4393 11.4034 35.8187C11.7635 36.1547 11.9808 36.5975 12.0159 37.0672C12.051 37.537 11.9018 38.0027 11.595 38.3806C11.2771 38.714 10.8428 38.9364 10.3661 39.0097L12.0508 41.4839H10.5709ZM8.39396 38.2203H9.50721C10.2802 38.2203 10.6667 37.9077 10.6667 37.2826C10.6746 37.155 10.6534 37.0272 10.6045 36.9074C10.5556 36.7877 10.48 36.6785 10.3826 36.5869C10.1383 36.4009 9.82374 36.3107 9.50721 36.3359H8.38075L8.39396 38.2203Z" />
<path d="M18.0102 40.2376H15.2981L14.8191 41.4837H13.392L15.8828 35.3618H17.4255L19.9063 41.4837H18.4793L18.0102 40.2376ZM17.6468 39.2999L16.6558 36.6866L15.6648 39.2999H17.6468Z" />
<path d="M27.3224 41.4838H25.9713L22.9421 37.2735V41.4838H21.5943V35.2924H22.9421L25.9713 39.5269V35.2924H27.3224V41.4838Z" />
<path d="M35.0326 40.0018C34.7532 40.4692 34.3276 40.8495 33.8103 41.0937C33.2222 41.3657 32.5695 41.4998 31.9109 41.4839H29.506V35.2924H31.9109C32.5684 35.2767 33.2202 35.4075 33.8103 35.6735C34.3275 35.9122 34.7536 36.2886 35.0326 36.7533C35.3107 37.2569 35.4556 37.8133 35.4556 38.3776C35.4556 38.9418 35.3107 39.4982 35.0326 40.0018ZM33.4866 39.8536C33.8722 39.4423 34.0842 38.9181 34.0842 38.376C34.0842 37.834 33.8722 37.3098 33.4866 36.8985C33.0205 36.5259 32.4127 36.3368 31.7952 36.3722H30.8571V40.3799H31.7952C32.4127 40.4153 33.0205 40.2261 33.4866 39.8536Z" />
<path d="M18.8558 0.853638C18.8558 0.853638 36.2945 6.88177 35.9245 15.6049V30.3591C35.9245 30.3591 18.4991 24.328 18.8624 15.6049L18.8558 0.853638Z" />
<path d="M51.4603 26.9049C54.7538 24.8296 58.5633 23.5442 62.5399 23.1664V18.5478C57.9579 20.1648 54.0709 23.0967 51.4603 26.9049Z" />
<path d="M49.4816 28.2964C52.1773 23.3265 56.8505 19.4914 62.54 17.58V4.27155C62.54 4.27155 37.705 12.8585 38.2303 25.2808V46.287C38.2303 46.287 39.3369 45.9029 41.0778 45.183C41.0778 44.5115 41.0778 43.834 41.1571 43.1535C41.6711 37.3865 44.6654 32.0424 49.4816 28.2964Z" />
<path d="M47.1197 36.1C47.2502 34.6432 47.5413 33.2021 47.9885 31.799C44.9896 35.034 43.1734 39.0484 42.7956 43.2775C42.7592 43.6768 42.7394 44.076 42.7295 44.4874C44.14 43.8673 45.7818 43.093 47.5062 42.1826C47.0662 40.1817 46.936 38.1341 47.1197 36.1Z" />
<path d="M48.1075 36.1756C47.9421 38.0159 48.0454 39.8682 48.4147 41.6835C55.1999 37.9662 62.8241 32.2224 62.5301 25.2808V24.6759C57.6824 25.1726 53.1468 27.1129 49.6204 30.1989C48.7948 32.1113 48.2849 34.1257 48.1075 36.1756Z" />
</symbol>
<symbol  id="company" viewBox="0 0 106 53">
<path d="M53.425 27.4952C52.9819 26.9054 52.7699 26.2083 52.8203 25.5066V22.6234C52.8203 21.7396 53.0207 21.0679 53.4216 20.6084C53.8224 20.1489 54.511 19.9201 55.4871 19.9221C56.4044 19.9221 57.0555 20.1176 57.4405 20.5087C57.8605 21.0077 58.0648 21.6178 58.018 22.2333V22.9108H56.3772V22.2245C56.383 21.9999 56.3671 21.7752 56.3296 21.5528C56.306 21.4008 56.2234 21.2602 56.0952 21.154C55.9267 21.0394 55.7145 20.9839 55.5007 20.9985C55.2759 20.984 55.0529 21.0426 54.8756 21.1628C54.7327 21.2804 54.6374 21.4347 54.6038 21.6027C54.5567 21.838 54.5351 22.0766 54.5393 22.3154V25.8146C54.5134 26.1521 54.5858 26.4899 54.7499 26.7971C54.8315 26.9011 54.9448 26.9835 55.0774 27.0353C55.2099 27.087 55.3564 27.1061 55.5007 27.0904C55.7109 27.1054 55.9195 27.0485 56.0816 26.9321C56.2153 26.8175 56.3013 26.668 56.3262 26.5068C56.3645 26.2746 56.3816 26.0402 56.3772 25.8058V25.096H58.018V25.7442C58.0641 26.3857 57.8648 27.0226 57.4507 27.5568C57.0736 27.985 56.4315 28.1991 55.4871 28.1991C54.5427 28.1991 53.8292 27.9704 53.425 27.4952Z" />
<path d="M60.2569 27.5245C59.8424 27.0758 59.6352 26.4217 59.6352 25.5565V22.5237C59.6352 21.6672 59.8424 21.019 60.2569 20.5791C60.6713 20.1391 61.3644 19.9201 62.3359 19.9221C63.3007 19.9221 63.9904 20.1411 64.4048 20.5791C64.8193 21.019 65.0299 21.6672 65.0299 22.5237V25.5565C65.0299 26.4129 64.8193 27.0699 64.398 27.5216C63.9768 27.9733 63.2906 28.1991 62.3359 28.1991C61.3813 28.1991 60.6747 27.9704 60.2569 27.5245ZM63.1003 26.7971C63.2487 26.516 63.3163 26.2081 63.2974 25.8996V22.1864C63.3164 21.8839 63.2499 21.5819 63.1037 21.3065C63.0205 21.2003 62.9043 21.1166 62.7686 21.0647C62.6328 21.0128 62.4829 20.995 62.3359 21.0132C62.1885 20.9954 62.0383 21.0135 61.9021 21.0653C61.7659 21.1171 61.6491 21.2006 61.5648 21.3065C61.4154 21.5811 61.3477 21.8835 61.3678 22.1864V25.9172C61.3471 26.2258 61.4148 26.5341 61.5648 26.8147C61.6604 26.9094 61.7785 26.9852 61.9109 27.0371C62.0433 27.0891 62.1871 27.116 62.3326 27.116C62.478 27.116 62.6218 27.0891 62.7542 27.0371C62.8866 26.9852 63.0047 26.9094 63.1003 26.8147V26.7971Z" />
<path d="M67.0035 20.0106H68.7701L70.0984 25.6062L71.4573 20.0106H73.1763L73.3496 28.0873H72.079L71.9431 22.474L70.6318 28.0873H69.6126L68.2537 22.4535L68.128 28.0873H66.8439L67.0035 20.0106Z" />
<path d="M75.3302 20.0106H78.0819C79.6673 20.0106 80.4599 20.775 80.4599 22.3039C80.4599 23.7684 79.6254 24.4996 77.9562 24.4976H77.0186V28.0873H75.32L75.3302 20.0106ZM77.6811 23.4624C77.8489 23.4808 78.0193 23.4675 78.1806 23.4234C78.3419 23.3794 78.4902 23.3056 78.6153 23.2072C78.8101 22.9344 78.896 22.6141 78.8599 22.2952C78.8688 22.0488 78.8414 21.8024 78.7783 21.562C78.7541 21.4817 78.7116 21.4063 78.6533 21.3404C78.5949 21.2744 78.522 21.2191 78.4386 21.1778C78.2028 21.0801 77.9422 21.0357 77.6811 21.0487H77.022V23.4624H77.6811Z"/>
<path d="M82.9094 20.0106H84.7337L86.6055 28.0873H85.0225L84.6522 26.225H83.0249L82.6444 28.0873H81.0376L82.9094 20.0106ZM84.4687 25.2895L83.8334 21.8992L83.1982 25.2895H84.4687Z" />
<path d="M88.1173 20.0106H89.3063L91.5825 24.6179V20.0106H92.9923V28.0873H91.861L89.5713 23.2776V28.0873H88.1139L88.1173 20.0106Z"/>
<path d="M96.2945 25.0077L94.4022 20.0219H95.9955L97.1506 23.2245L98.2343 20.0219H99.7936L97.9251 25.0077V28.0872H96.2945V25.0077Z"/>
<path d="M56.0477 31.6185V32.0409H54.6617V35.3228H54.0807V32.0409H52.6879V31.6185H56.0477Z"/>
<path d="M60.3927 35.3231H59.9442C59.8987 35.3256 59.8538 35.313 59.8185 35.2879C59.7846 35.2664 59.7587 35.2369 59.7438 35.2029L59.3429 34.323H57.4201L57.0192 35.2029C57.0078 35.2397 56.9869 35.2738 56.958 35.3026C56.9225 35.3271 56.8778 35.3397 56.8324 35.3378H56.3839L58.0825 31.6337H58.6737L60.3927 35.3231ZM57.5797 33.9476H59.1833L58.5038 32.4402C58.4537 32.3262 58.4117 32.2096 58.3781 32.0912C58.3543 32.1616 58.3339 32.229 58.3136 32.2877L58.2524 32.4431L57.5797 33.9476Z"  />
<path d="M63.3211 34.9593C63.4275 34.9641 63.5341 34.9641 63.6404 34.9593C63.7323 34.9511 63.8232 34.9364 63.9122 34.9153C63.9954 34.8977 64.0772 34.8751 64.1568 34.8478C64.2316 34.8214 64.3063 34.7891 64.3844 34.7569V33.9239H63.705C63.6882 33.9247 63.6714 33.9225 63.6556 33.9174C63.6398 33.9124 63.6254 33.9046 63.6133 33.8945C63.6021 33.8862 63.5933 33.8758 63.5874 33.8641C63.5815 33.8524 63.5787 33.8398 63.5793 33.8271V33.5425H64.8974V34.9622C64.7898 35.0287 64.6762 35.0875 64.5577 35.1382C64.4366 35.1898 64.3104 35.232 64.1806 35.2643C64.0417 35.2996 63.8996 35.3251 63.7559 35.3406C63.5912 35.3564 63.4257 35.3642 63.26 35.3641C62.967 35.3662 62.6763 35.3194 62.4038 35.2262C62.1495 35.1379 61.9184 35.0062 61.7244 34.839C61.5353 34.6701 61.3864 34.4708 61.2862 34.2524C61.1791 34.0068 61.1261 33.7462 61.1299 33.4839C61.1263 33.2199 61.1781 32.9576 61.2828 32.7095C61.3805 32.49 61.5297 32.2903 61.721 32.1229C61.9149 31.9562 62.1461 31.8255 62.4005 31.7386C62.6914 31.6441 63.0001 31.5974 63.3109 31.6008C63.4691 31.6006 63.627 31.6114 63.7831 31.633C63.9212 31.6524 64.0567 31.6839 64.1874 31.7269C64.3062 31.7654 64.4201 31.8146 64.5271 31.8735C64.6312 31.9314 64.7301 31.9962 64.8227 32.0671L64.6596 32.2959C64.6468 32.3168 64.6278 32.3344 64.6045 32.3468C64.5812 32.3591 64.5545 32.3659 64.5271 32.3663C64.4895 32.3653 64.453 32.3551 64.4218 32.337C64.3708 32.3135 64.3165 32.2842 64.2553 32.249C64.1831 32.2099 64.1069 32.1765 64.0277 32.1493C63.9265 32.1142 63.8219 32.0867 63.7152 32.0671C63.5729 32.0445 63.4284 32.0337 63.2837 32.0349C63.0596 32.0327 62.8371 32.0676 62.6281 32.1375C62.439 32.203 62.2686 32.3031 62.1287 32.4309C61.9879 32.564 61.8803 32.7208 61.8127 32.8914C61.661 33.2926 61.661 33.725 61.8127 34.1262C61.8871 34.3005 62.0028 34.4593 62.1525 34.5926C62.2918 34.7197 62.4609 34.8197 62.6485 34.8859C62.8645 34.95 63.0934 34.9749 63.3211 34.9593Z"  />
<path d="M68.7362 34.9005H70.5911V35.3228H68.1689V31.6185H68.7498L68.7362 34.9005Z"/>
<path d="M72.5208 35.3228H71.9398V31.6185H72.5208V35.3228Z"/>
<path d="M74.6814 31.6361C74.7159 31.6531 74.746 31.6761 74.7697 31.7036L77.253 34.4959C77.2497 34.452 77.2497 34.4079 77.253 34.3639C77.253 34.3229 77.253 34.2818 77.253 34.2437V31.6039H77.7592V35.3231H77.4671C77.4238 35.3261 77.3804 35.319 77.3414 35.3025C77.3061 35.2841 77.275 35.2602 77.2496 35.2321L74.7697 32.4428C74.7697 32.4867 74.7697 32.5278 74.7697 32.5689C74.7697 32.6099 74.7697 32.6481 74.7697 32.6833V35.3231H74.2839V31.6185H74.5863C74.6191 31.6186 74.6515 31.6246 74.6814 31.6361Z" />
<path d="M82.0364 31.6185V32.0262H79.9777V33.2493H81.6457V33.6423H79.9777V34.9064H82.0364V35.3141H79.3798V31.6185H82.0364Z" />
<path d="M21.1617 8.74242L46.9568 15.0657V37.2237L21.1617 30.9033V8.74242ZM19.5073 6.85364V31.9797L48.6079 39.1154V13.9923L19.5073 6.85364Z" />
<path d="M35.1039 50.7791L6 43.6375V18.514L35.1039 25.6528V50.7791Z"/>
<path d="M19.9897 8.4579L45.4484 14.7019L34.6215 24.0518L9.1594 17.8049L19.9897 8.4579ZM19.5073 6.85364L6 18.5146L35.1039 25.6531L48.6078 13.9922L19.5073 6.85364Z" />
<path d="M36.7414 49.3657L48.6078 39.1185L36.7414 36.2062V49.3657Z"/>
</symbol>



<!-- ICONS FOOTER -->

<symbol id="twitter" viewBox="0 0 44 44">
<path d="M44 21.9999C44 28.0751 41.5376 33.5751 37.5564 37.5563C33.5751 41.5375 28.0751 43.9999 22 43.9999C15.9249 43.9999 10.4249 41.5375 6.44365 37.5563C2.46243 33.5751 0 28.0751 0 21.9999C0 15.9248 2.46243 10.4248 6.44365 6.44359C10.4249 2.46237 15.9249 -6.10352e-05 22 -6.10352e-05C28.0751 -6.10352e-05 33.5751 2.46237 37.5564 6.44359C41.5376 10.4248 44 15.9248 44 21.9999Z"/>
<path d="M32 15.7988C31.2563 16.125 30.4637 16.3412 29.6375 16.4462C30.4875 15.9388 31.1363 15.1412 31.4412 14.18C30.6488 14.6525 29.7738 14.9863 28.8412 15.1725C28.0887 14.3713 27.0162 13.875 25.8462 13.875C23.5763 13.875 21.7487 15.7175 21.7487 17.9763C21.7487 18.3012 21.7762 18.6137 21.8438 18.9112C18.435 18.745 15.4188 17.1113 13.3925 14.6225C13.0387 15.2363 12.8313 15.9388 12.8313 16.695C12.8313 18.115 13.5625 19.3737 14.6525 20.1025C13.9937 20.09 13.3475 19.8988 12.8 19.5975C12.8 19.61 12.8 19.6262 12.8 19.6425C12.8 21.635 14.2212 23.29 16.085 23.6712C15.7512 23.7625 15.3875 23.8062 15.01 23.8062C14.7475 23.8062 14.4825 23.7913 14.2337 23.7362C14.765 25.36 16.2725 26.5538 18.065 26.5925C16.67 27.6838 14.8988 28.3412 12.9813 28.3412C12.645 28.3412 12.3225 28.3263 12 28.285C13.8162 29.4563 15.9688 30.125 18.29 30.125C25.835 30.125 29.96 23.875 29.96 18.4575C29.96 18.2762 29.9538 18.1013 29.945 17.9275C30.7588 17.35 31.4425 16.6288 32 15.7988Z" fill="white"/>
</symbol>


<symbol id="linkedin" viewBox="0 0 44 44">
<path d="M44 21.9999C44 28.0751 41.5376 33.5751 37.5564 37.5563C33.5751 41.5375 28.0751 43.9999 22 43.9999C15.9249 43.9999 10.4249 41.5375 6.44365 37.5563C2.46243 33.5751 0 28.0751 0 21.9999C0 15.9248 2.46243 10.4248 6.44365 6.44359C10.4249 2.46237 15.9249 -6.10352e-05 22 -6.10352e-05C28.0751 -6.10352e-05 33.5751 2.46237 37.5564 6.44359C41.5376 10.4248 44 15.9248 44 21.9999Z"/>
<path d="M31.9951 32V31.9992H32.0001V24.6642C32.0001 21.0759 31.2276 18.3117 27.0326 18.3117C25.0159 18.3117 23.6626 19.4184 23.1101 20.4675H23.0517V18.6467H19.0742V31.9992H23.2159V25.3875C23.2159 23.6467 23.5459 21.9634 25.7017 21.9634C27.8259 21.9634 27.8576 23.95 27.8576 25.4992V32H31.9951Z" fill="white"/>
<path d="M12.3301 18.6475H16.4767V32H12.3301V18.6475Z" fill="white"/>
<path d="M14.4017 12C13.0758 12 12 13.0758 12 14.4017C12 15.7275 13.0758 16.8258 14.4017 16.8258C15.7275 16.8258 16.8033 15.7275 16.8033 14.4017C16.8025 13.0758 15.7267 12 14.4017 12V12Z" fill="white"/>
</symbol>

<symbol id="instagram" viewBox="0 0 44 44">
<path d="M44 22C44 28.0751 41.5376 33.5751 37.5564 37.5564C33.5751 41.5376 28.0751 44 22 44C15.9249 44 10.4249 41.5376 6.44365 37.5564C2.46243 33.5751 0 28.0751 0 22C0 15.9249 2.46243 10.4249 6.44365 6.44365C10.4249 2.46243 15.9249 0 22 0C28.0751 0 33.5751 2.46243 37.5564 6.44365C41.5376 10.4249 44 15.9249 44 22Z"/>
<path d="M31.9804 17.8801C31.9336 16.8174 31.7617 16.0868 31.5156 15.4537C31.2616 14.7818 30.8709 14.1801 30.359 13.68C29.8589 13.1721 29.2533 12.7774 28.5891 12.5274C27.9524 12.2813 27.2256 12.1094 26.163 12.0626C25.0924 12.0118 24.7525 12 22.0371 12C19.3217 12 18.9818 12.0118 17.9152 12.0586C16.8525 12.1055 16.1219 12.2775 15.489 12.5235C14.8169 12.7774 14.2153 13.1681 13.7152 13.68C13.2073 14.1801 12.8127 14.7857 12.5626 15.4499C12.3164 16.0868 12.1446 16.8134 12.0977 17.8761C12.0469 18.9467 12.0352 19.2866 12.0352 22.002C12.0352 24.7173 12.0469 25.0572 12.0938 26.1239C12.1406 27.1865 12.3126 27.9171 12.5588 28.5502C12.8127 29.2221 13.2073 29.8238 13.7152 30.3239C14.2153 30.8318 14.8209 31.2265 15.4851 31.4765C16.1219 31.7226 16.8486 31.8945 17.9114 31.9413C18.9779 31.9883 19.3179 31.9999 22.0333 31.9999C24.7487 31.9999 25.0885 31.9883 26.1552 31.9413C27.2179 31.8945 27.9484 31.7226 28.5813 31.4765C29.9254 30.9568 30.9881 29.8941 31.5078 28.5502C31.7538 27.9133 31.9258 27.1865 31.9727 26.1239C32.0195 25.0572 32.0313 24.7173 32.0313 22.002C32.0313 19.2866 32.0273 18.9467 31.9804 17.8801ZM30.1794 26.0457C30.1364 27.0225 29.9723 27.5499 29.8356 27.9015C29.4995 28.7728 28.808 29.4643 27.9367 29.8004C27.5851 29.9372 27.0538 30.1012 26.0809 30.1441C25.026 30.1911 24.7096 30.2027 22.0411 30.2027C19.3726 30.2027 19.0522 30.1911 18.0011 30.1441C17.0244 30.1012 16.4969 29.9372 16.1453 29.8004C15.7117 29.6402 15.317 29.3862 14.9967 29.0541C14.6646 28.7298 14.4106 28.3391 14.2504 27.9055C14.1137 27.5539 13.9496 27.0225 13.9067 26.0497C13.8597 24.9948 13.8481 24.6783 13.8481 22.0097C13.8481 19.3412 13.8597 19.0209 13.9067 17.9699C13.9496 16.9932 14.1137 16.4657 14.2504 16.1141C14.4106 15.6804 14.6646 15.2859 15.0007 14.9654C15.3248 14.6333 15.7155 14.3793 16.1493 14.2192C16.5009 14.0825 17.0323 13.9184 18.0051 13.8754C19.06 13.8285 19.3765 13.8168 22.0449 13.8168C24.7174 13.8168 25.0337 13.8285 26.0848 13.8754C27.0616 13.9184 27.589 14.0825 27.9407 14.2192C28.3742 14.3793 28.7689 14.6333 29.0893 14.9654C29.4213 15.2897 29.6753 15.6804 29.8356 16.1141C29.9723 16.4657 30.1364 16.997 30.1794 17.9699C30.2263 19.0248 30.238 19.3412 30.238 22.0097C30.238 24.6783 30.2263 24.9908 30.1794 26.0457Z" fill="white"/>
<path d="M22.0371 16.8641C19.2007 16.8641 16.8994 19.1653 16.8994 22.0019C16.8994 24.8384 19.2007 27.1396 22.0371 27.1396C24.8737 27.1396 27.1749 24.8384 27.1749 22.0019C27.1749 19.1653 24.8737 16.8641 22.0371 16.8641ZM22.0371 25.3346C20.197 25.3346 18.7044 23.8421 18.7044 22.0019C18.7044 20.1616 20.197 18.6691 22.0371 18.6691C23.8774 18.6691 25.3698 20.1616 25.3698 22.0019C25.3698 23.8421 23.8774 25.3346 22.0371 25.3346Z" fill="white"/>
<path d="M28.5775 16.6611C28.5775 17.3235 28.0404 17.8605 27.3779 17.8605C26.7155 17.8605 26.1785 17.3235 26.1785 16.6611C26.1785 15.9986 26.7155 15.4617 27.3779 15.4617C28.0404 15.4617 28.5775 15.9986 28.5775 16.6611Z" fill="white"/>
</symbol>

<symbol id ="facebook" viewBox="0 0 44 44">
<path d="M44 22C44 28.0751 41.5376 33.5751 37.5564 37.5564C33.5751 41.5376 28.0751 44 22 44C15.9249 44 10.4249 41.5376 6.44365 37.5564C2.46243 33.5751 0 28.0751 0 22C0 15.9249 2.46243 10.4249 6.44365 6.44365C10.4249 2.46243 15.9249 0 22 0C28.0751 0 33.5751 2.46243 37.5564 6.44365C41.5376 10.4249 44 15.9249 44 22Z"/>
<path d="M25.3309 15.3208H27.1567V12.1408C26.8417 12.0975 25.7584 12 24.4967 12C21.8642 12 20.0609 13.6558 20.0609 16.6992V19.5H17.1559V23.055H20.0609V32H23.6226V23.0558H26.4101L26.8526 19.5008H23.6217V17.0517C23.6226 16.0242 23.8992 15.3208 25.3309 15.3208Z" fill="white"/>
</symbol>

<!-- ICONOS TARJETAS -->

<symbol id="outside">
<path d="M44 21.9999C44 28.0751 41.5376 33.5751 37.5564 37.5563C33.5751 41.5375 28.0751 43.9999 22 43.9999C15.9249 43.9999 10.4249 41.5375 6.44365 37.5563C2.46243 33.5751 0 28.0751 0 21.9999C0 15.9248 2.46243 10.4248 6.44365 6.44359C10.4249 2.46237 15.9249 -6.10352e-05 22 -6.10352e-05C28.0751 -6.10352e-05 33.5751 2.46237 37.5564 6.44359C41.5376 10.4248 44 15.9248 44 21.9999Z"/>
</symbol>
<symbol id="into" width="20" height="20" viewBox="0 0 20 20">
<path d="M20 3.79875C19.2563 4.125 18.4637 4.34125 17.6375 4.44625C18.4875 3.93875 19.1363 3.14125 19.4412 2.18C18.6488 2.6525 17.7738 2.98625 16.8412 3.1725C16.0887 2.37125 15.0162 1.875 13.8462 1.875C11.5763 1.875 9.74875 3.7175 9.74875 5.97625C9.74875 6.30125 9.77625 6.61375 9.84375 6.91125C6.435 6.745 3.41875 5.11125 1.3925 2.6225C1.03875 3.23625 0.83125 3.93875 0.83125 4.695C0.83125 6.115 1.5625 7.37375 2.6525 8.1025C1.99375 8.09 1.3475 7.89875 0.8 7.5975C0.8 7.61 0.8 7.62625 0.8 7.6425C0.8 9.635 2.22125 11.29 4.085 11.6712C3.75125 11.7625 3.3875 11.8062 3.01 11.8062C2.7475 11.8062 2.4825 11.7913 2.23375 11.7362C2.765 13.36 4.2725 14.5538 6.065 14.5925C4.67 15.6838 2.89875 16.3412 0.98125 16.3412C0.645 16.3412 0.3225 16.3263 0 16.285C1.81625 17.4563 3.96875 18.125 6.29 18.125C13.835 18.125 17.96 11.875 17.96 6.4575C17.96 6.27625 17.9538 6.10125 17.945 5.9275C18.7588 5.35 19.4425 4.62875 20 3.79875Z"/>
</symbol>

<symbol id="insta" width="20" height="20" viewBox="0 0 20 20">
<path d="M19.9804 5.88005C19.9336 4.81738 19.7617 4.0868 19.5156 3.45374C19.2616 2.78176 18.8709 2.18014 18.359 1.68002C17.8589 1.1721 17.2533 0.777435 16.5891 0.527447C15.9524 0.281274 15.2256 0.109427 14.163 0.0625732C13.0924 0.0117516 12.7525 0 10.0371 0C7.32173 0 6.98185 0.0117516 5.91521 0.0586052C4.85253 0.105459 4.12195 0.277459 3.48904 0.523479C2.81692 0.777435 2.2153 1.16814 1.71517 1.68002C1.20726 2.18014 0.812743 2.78573 0.562603 3.44992C0.31643 4.0868 0.144583 4.81341 0.0977294 5.87609C0.0469078 6.9467 0.0351562 7.28658 0.0351562 10.002C0.0351562 12.7173 0.0469078 13.0572 0.0937614 14.1239C0.140615 15.1865 0.312615 15.9171 0.558787 16.5502C0.812743 17.2221 1.20726 17.8238 1.71517 18.3239C2.2153 18.8318 2.82088 19.2265 3.48508 19.4765C4.12195 19.7226 4.84856 19.8945 5.91139 19.9413C6.97788 19.9883 7.31791 19.9999 10.0333 19.9999C12.7487 19.9999 13.0885 19.9883 14.1552 19.9413C15.2179 19.8945 15.9484 19.7226 16.5813 19.4765C17.9254 18.9568 18.9881 17.8941 19.5078 16.5502C19.7538 15.9133 19.9258 15.1865 19.9727 14.1239C20.0195 13.0572 20.0313 12.7173 20.0313 10.002C20.0313 7.28658 20.0273 6.9467 19.9804 5.88005ZM18.1794 14.0457C18.1364 15.0225 17.9723 15.5499 17.8356 15.9015C17.4995 16.7728 16.808 17.4643 15.9367 17.8004C15.5851 17.9372 15.0538 18.1012 14.0809 18.1441C13.026 18.1911 12.7096 18.2027 10.0411 18.2027C7.37255 18.2027 7.05221 18.1911 6.00113 18.1441C5.02438 18.1012 4.49693 17.9372 4.1453 17.8004C3.71171 17.6402 3.31704 17.3862 2.9967 17.0541C2.6646 16.7298 2.41065 16.3391 2.2504 15.9055C2.11365 15.5539 1.94959 15.0225 1.90671 14.0497C1.8597 12.9948 1.8481 12.6783 1.8481 10.0097C1.8481 7.34122 1.8597 7.02087 1.90671 5.96995C1.94959 4.99319 2.11365 4.46575 2.2504 4.11412C2.41065 3.68038 2.6646 3.28586 3.00067 2.96536C3.32483 2.63327 3.71553 2.37931 4.14927 2.21921C4.5009 2.08247 5.03231 1.9184 6.0051 1.87537C7.05999 1.82851 7.37652 1.81676 10.0449 1.81676C12.7174 1.81676 13.0337 1.82851 14.0848 1.87537C15.0616 1.9184 15.589 2.08247 15.9407 2.21921C16.3742 2.37931 16.7689 2.63327 17.0893 2.96536C17.4213 3.28967 17.6753 3.68038 17.8356 4.11412C17.9723 4.46575 18.1364 4.99701 18.1794 5.96995C18.2263 7.02484 18.238 7.34122 18.238 10.0097C18.238 12.6783 18.2263 12.9908 18.1794 14.0457Z"/>
<path d="M10.0371 4.8642C7.20074 4.8642 4.89941 7.16537 4.89941 10.0019C4.89941 12.8385 7.20074 15.1396 10.0371 15.1396C12.8737 15.1396 15.1749 12.8385 15.1749 10.0019C15.1749 7.16537 12.8737 4.8642 10.0371 4.8642ZM10.0371 13.3346C8.19702 13.3346 6.70442 11.8422 6.70442 10.0019C6.70442 8.16165 8.19702 6.66921 10.0371 6.66921C11.8774 6.66921 13.3698 8.16165 13.3698 10.0019C13.3698 11.8422 11.8774 13.3346 10.0371 13.3346Z"/>
<path d="M16.5775 4.6611C16.5775 5.32346 16.0404 5.86052 15.3779 5.86052C14.7155 5.86052 14.1785 5.32346 14.1785 4.6611C14.1785 3.99858 14.7155 3.46167 15.3779 3.46167C16.0404 3.46167 16.5775 3.99858 16.5775 4.6611Z"/>
</symbol>

<symbol id="face" width="20" height="20" viewBox="0 0 20 20">
<path d="M13.3309 3.32083H15.1567V0.140833C14.8417 0.0975 13.7584 0 12.4967 0C9.86422 0 8.06088 1.65583 8.06088 4.69917V7.5H5.15588V11.055H8.06088V20H11.6226V11.0558H14.4101L14.8526 7.50083H11.6217V5.05167C11.6226 4.02417 11.8992 3.32083 13.3309 3.32083Z"/>
</symbol>

<symbol id="link" width="20" height="20" viewBox="0 0 20 20">
<path d="M19.9951 20V19.9992H20.0001V12.6642C20.0001 9.07587 19.2276 6.31171 15.0326 6.31171C13.0159 6.31171 11.6626 7.41837 11.1101 8.46754H11.0517V6.64671H7.07422V19.9992H11.2159V13.3875C11.2159 11.6467 11.5459 9.96337 13.7017 9.96337C15.8259 9.96337 15.8576 11.95 15.8576 13.4992V20H19.9951Z"/>
<path d="M0.329956 6.64746H4.47662V20H0.329956V6.64746Z"/>
<path d="M2.40167 0C1.07583 0 0 1.07583 0 2.40167C0 3.7275 1.07583 4.82583 2.40167 4.82583C3.7275 4.82583 4.80333 3.7275 4.80333 2.40167C4.8025 1.07583 3.72667 0 2.40167 0V0Z"/>
</symbol>

</svg>