<svg viewBox="0 0 10 10" xmlns="http://www.w3.org/2000/svg">

<symbol id="xector" viewBox="0 0 10 10">
<path d="M11 1.10786L9.89214 0L5.5 4.39214L1.10786 0L0 1.10786L4.39214 5.5L0 9.89214L1.10786 11L5.5 6.60786L9.89214 11L11 9.89214L6.60786 5.5L11 1.10786Z #2196F3"/>
</symbol>

<symbol id="checkbox" viewBox="0 0 512 512">
	<path d="M405.333,0H106.667C47.786,0.071,0.071,47.786,0,106.667v298.667C0.071,464.214,47.786,511.93,106.667,512h298.667   C464.214,511.93,511.93,464.214,512,405.333V106.667C511.93,47.786,464.214,0.071,405.333,0z M426.667,172.352L229.248,369.771   c-16.659,16.666-43.674,16.671-60.34,0.012c-0.004-0.004-0.008-0.008-0.012-0.012l-83.563-83.541   c-8.348-8.348-8.348-21.882,0-30.229s21.882-8.348,30.229,0l83.541,83.541l197.44-197.419c8.348-8.318,21.858-8.294,30.176,0.053   C435.038,150.524,435.014,164.034,426.667,172.352z" fill="#2196F3"/>
</symbol>

<symbol id="mail">
<path d="M15 3H3C2.175 3 1.5075 3.675 1.5075 4.5L1.5 13.5C1.5 14.325 2.175 15 3 15H15C15.825 15 16.5 14.325 16.5 13.5V4.5C16.5 3.675 15.825 3 15 3ZM14.7 6.1875L9.3975 9.5025C9.1575 9.6525 8.8425 9.6525 8.6025 9.5025L3.3 6.1875C3.1125 6.0675 3 5.865 3 5.6475C3 5.145 3.5475 4.845 3.975 5.1075L9 8.25L14.025 5.1075C14.4525 4.845 15 5.145 15 5.6475C15 5.865 14.8875 6.0675 14.7 6.1875Z"/>
</symbol>

<symbol id="person">
<path d="M9 9C10.6575 9 12 7.6575 12 6C12 4.3425 10.6575 3 9 3C7.3425 3 6 4.3425 6 6C6 7.6575 7.3425 9 9 9ZM9 10.5C6.9975 10.5 3 11.505 3 13.5V14.25C3 14.6625 3.3375 15 3.75 15H14.25C14.6625 15 15 14.6625 15 14.25V13.5C15 11.505 11.0025 10.5 9 10.5Z"/>
</symbol>

<symbol id="telefono-inte">
<path d="M8.5 0H1.5C0.672848 0 0 0.672848 0 1.5V14.5C0 15.3272 0.672848 16 1.5 16H8.5C9.32715 16 10 15.3272 10 14.5V1.5C10 0.672848 9.32715 0 8.5 0ZM1.5 1H8.5C8.77588 1 9 1.22412 9 1.5V12H1V1.5C1 1.22412 1.22412 1 1.5 1ZM8.5 15H1.5C1.22412 15 1 14.7759 1 14.5V13H9V14.5C9 14.7759 8.77588 15 8.5 15Z" fill="#757575"/>
<path d="M2.35355 13.7389C2.54882 13.9213 2.54882 14.2169 2.35355 14.3992C2.15828 14.5816 1.84172 14.5816 1.64645 14.3992C1.45118 14.2169 1.45118 13.9213 1.64645 13.7389C1.84172 13.5566 2.15828 13.5566 2.35355 13.7389Z" fill="#757575"/>
</symbol>

<symbol id="telecontac" viewBox="0 0 10 10">
<path style=" stroke:none;fill-opacity:1;" d="M 9.332031 7.414062 L 8.105469 7.273438 C 7.8125 7.242188 7.519531 7.34375 7.3125 7.550781 L 6.425781 8.4375 C 5.0625 7.742188 3.941406 6.628906 3.246094 5.257812 L 4.140625 4.367188 C 4.347656 4.160156 4.449219 3.867188 4.414062 3.574219 L 4.273438 2.359375 C 4.214844 1.871094 3.804688 1.503906 3.316406 1.503906 L 2.480469 1.503906 C 1.933594 1.503906 1.480469 1.957031 1.515625 2.503906 C 1.769531 6.625 5.066406 9.914062 9.179688 10.167969 C 9.726562 10.203125 10.179688 9.75 10.179688 9.203125 L 10.179688 8.371094 C 10.183594 7.882812 9.816406 7.472656 9.332031 7.414062 Z M 9.332031 7.414062 "/>
</symbol>

</svg>